<svg xmlns="http://www.w3.org/2000/svg" width="57" height="57" viewBox="0 0 57 57" fill="none"><g clip-path="url(#clip0_150_55)"><path d="M48.9475 53.6484L26.5287 41.7781C25.9445 41.4682 25.232 41.511 24.6798 41.885L7.53705 53.7553C6.8958 54.2006 6.61792 55.0093 6.85305 55.7538C7.08105 56.4913 7.77217 57.0007 8.5488 57.0007H48.1104C48.9262 57.0007 49.6422 56.445 49.8382 55.647C50.0377 54.8525 49.6672 54.0296 48.9475 53.6484Z" fill="#C4C4C4"></path><path d="M56.4501 50.264L51.1776 26.5271C51.0494 25.9464 50.6397 25.4726 50.0875 25.2553C49.5318 25.038 48.9083 25.1128 48.4238 25.4476L31.2775 37.3179C30.7645 37.6742 30.4759 38.2691 30.5151 38.8854C30.5508 39.5088 30.9106 40.0646 31.4592 40.3531L53.8744 52.2234C54.1381 52.3623 54.4231 52.4336 54.7081 52.4336C55.0892 52.4336 55.4704 52.3125 55.7875 52.0667C56.3397 51.6463 56.5998 50.9445 56.4501 50.264Z" fill="#F1F0F0"></path><path d="M44.0455 22.6262C43.8104 21.8816 43.1228 21.3757 42.3426 21.3757H26.0834C23.1265 26.7302 18.7518 31.8495 16.9527 33.8516C15.9409 34.9774 14.491 35.6257 12.9769 35.6257C11.4629 35.6257 10.0129 34.9774 9.00119 33.8516C8.3065 33.0785 7.23063 31.8424 5.998 30.3105L1.68738 49.7119C1.53063 50.4279 1.82631 51.1654 2.43194 51.575C2.73119 51.7781 3.08031 51.8779 3.42588 51.8779C3.78213 51.8779 4.13482 51.7745 4.44119 51.5608L43.3544 24.6176C43.9992 24.1794 44.2735 23.3707 44.0455 22.6262Z" fill="#DBDBDB"></path><path d="M12.977 0.000732422C6.10137 0.000732422 0.50824 5.59386 0.50824 12.4695C0.50824 18.8677 10.5117 30.2 11.6517 31.4719C11.9902 31.8459 12.4711 32.0632 12.977 32.0632C13.4829 32.0632 13.9638 31.8459 14.3022 31.4719C15.4422 30.2 25.4457 18.8677 25.4457 12.4695C25.4457 5.59386 19.8526 0.000732422 12.977 0.000732422ZM12.977 17.8132C10.0272 17.8132 7.63324 15.4192 7.63324 12.4695C7.63324 9.51973 10.0272 7.12573 12.977 7.12573C15.9267 7.12573 18.3207 9.51973 18.3207 12.4695C18.3207 15.4192 15.9267 17.8132 12.977 17.8132Z" fill="#818181"></path></g><defs><clipPath id="clip0_150_55"><rect width="57" height="57" fill="white" transform="translate(0 0.000732422)"></rect></clipPath></defs></svg>