<svg xmlns="http://www.w3.org/2000/svg" width="64" height="60" viewBox="0 0 64 60" fill="none"><path d="M23.296 43.9208L32 39.3608L40.704 43.9208C41.088 44.1608 41.6 44.1608 42.112 43.8008C42.496 43.5608 42.752 43.0808 42.624 42.6008L40.96 33.0008L48.128 26.1608C48.512 25.8008 48.64 25.3208 48.384 24.9608C48.256 24.4808 47.872 24.2408 47.36 24.1208L37.504 22.8008L33.152 14.0408C32.896 13.5608 32.512 13.3208 32 13.3208C31.488 13.3208 31.104 13.5608 30.848 14.0408L26.496 22.8008L16.64 24.1208C16.128 24.2408 15.744 24.4808 15.616 24.9608C15.488 25.4408 15.616 25.8008 15.872 26.1608L23.04 33.0008L21.376 42.6008C21.248 43.0808 21.504 43.5608 21.888 43.8008C22.272 44.1608 22.784 44.1608 23.296 43.9208V43.9208ZM19.456 26.1608L27.52 24.9608C27.904 24.9608 28.288 24.6008 28.544 24.2408L32.128 17.1608L35.712 24.2408C35.84 24.6008 36.224 24.8408 36.736 24.9608L44.8 26.1608L38.912 31.8008C38.656 32.0408 38.528 32.4008 38.528 32.8808L39.936 40.6808L32.896 37.0808C32.64 36.9608 32.512 36.9608 32.256 36.9608C32 36.9608 31.872 36.9608 31.616 37.0808L24.576 40.6808L25.984 32.8808C26.112 32.5208 25.984 32.1608 25.6 31.8008L19.456 26.1608Z" fill="#818181"></path><path d="M62.592 46.5606C62.464 46.0806 62.08 45.8406 61.568 45.7206L55.936 44.8806L53.376 39.8406C53.12 39.3606 52.736 39.1206 52.224 39.1206C51.712 39.1206 51.328 39.3606 51.072 39.8406L48.512 44.8806L42.88 45.7206C42.368 45.8406 41.984 46.0806 41.856 46.5606C41.728 47.0406 41.856 47.4006 42.112 47.7606L46.208 51.7206L45.184 57.3606C45.056 57.8406 45.312 58.3206 45.696 58.5606C46.08 58.8006 46.592 58.8006 47.104 58.6806L52.224 56.0406L57.344 58.6806C57.728 58.9206 58.24 58.9206 58.752 58.5606C59.136 58.3206 59.392 57.8406 59.264 57.3606L58.24 51.7206L62.336 47.7606C62.72 47.5206 62.848 47.0406 62.592 46.5606V46.5606ZM55.936 50.5206C55.68 50.7606 55.552 51.1206 55.552 51.6006L56.192 55.4406L52.864 53.6406C52.608 53.5206 52.48 53.5206 52.224 53.5206C51.968 53.5206 51.84 53.5206 51.584 53.6406L48.256 55.4406L48.896 51.6006C49.024 51.2406 48.896 50.8806 48.512 50.5206L45.696 47.7606L49.536 47.1606C49.92 47.1606 50.304 46.8006 50.56 46.4406L52.224 43.0806L53.888 46.4406C54.016 46.8006 54.4 47.0406 54.912 47.1606L58.752 47.7606L55.936 50.5206Z" fill="#DBDBDB"></path><path d="M22.144 46.5606C22.016 46.0806 21.632 45.8406 21.12 45.7206L15.488 44.8806L12.928 39.8406C12.672 39.3606 12.288 39.1206 11.776 39.1206C11.264 39.1206 10.88 39.3606 10.624 39.8406L8.064 44.8806L2.432 45.7206C1.92 45.8406 1.536 46.0806 1.408 46.5606C1.28 47.0406 1.408 47.4006 1.664 47.7606L5.76 51.7206L4.736 57.3606C4.608 57.8406 4.864 58.3206 5.248 58.5606C5.632 58.8006 6.144 58.8006 6.656 58.6806L11.776 56.0406L16.896 58.6806C17.28 58.9206 17.792 58.9206 18.304 58.5606C18.688 58.3206 18.944 57.8406 18.816 57.3606L17.792 51.7206L21.888 47.7606C22.272 47.5206 22.4 47.0406 22.144 46.5606V46.5606ZM15.488 50.5206C15.232 50.7606 15.104 51.1206 15.104 51.6006L15.744 55.4406L12.416 53.6406C12.032 53.4006 11.52 53.4006 11.136 53.6406L7.808 55.4406L8.448 51.6006C8.576 51.2406 8.448 50.8806 8.064 50.5206L5.248 47.7606L9.088 47.1606C9.472 47.1606 9.856 46.8006 10.112 46.4406L11.776 43.2006L13.44 46.5606C13.568 46.9206 13.952 47.1606 14.464 47.2806L18.304 47.8806L15.488 50.5206Z" fill="#DBDBDB"></path><path d="M32 10.3207C32.768 10.3207 33.28 9.84068 33.28 9.12068V2.40068C33.28 1.68068 32.768 1.20068 32 1.20068C31.232 1.20068 30.72 1.68068 30.72 2.40068V9.12068C30.72 9.84068 31.232 10.3207 32 10.3207Z" fill="#B5B5B5"></path><path d="M43.264 11.1608L47.872 6.36081C48.384 5.88081 48.256 5.16081 47.744 4.68081C47.232 4.20081 46.464 4.32081 45.952 4.80081L41.344 9.60081C40.832 10.0808 40.96 10.8008 41.472 11.2808C41.984 11.6408 42.752 11.6408 43.264 11.1608Z" fill="#DBDBDB"></path><path d="M21.5039 11.1608C22.0159 11.6408 22.7839 11.6408 23.2959 11.1608C23.8079 10.6808 23.8079 9.9608 23.2959 9.4808L18.0479 4.6808C17.5359 4.2008 16.7679 4.2008 16.2559 4.6808C15.7439 5.1608 15.7439 5.8808 16.2559 6.3608L21.5039 11.1608Z" fill="#DBDBDB"></path></svg>