<svg xmlns="http://www.w3.org/2000/svg" width="53" height="53" viewBox="0 0 53 53" fill="none"><path d="M48.8595 9.93823H39.7501V4.14136H36.4376V9.93823H16.5626V4.14136H13.2501V9.93823H4.14075C3.48209 9.939 2.85062 10.201 2.38488 10.6667C1.91913 11.1325 1.65714 11.7639 1.65637 12.4226V47.2039C1.65714 47.8625 1.91913 48.494 2.38488 48.9597C2.85062 49.4255 3.48209 49.6875 4.14075 49.6882H48.8595C49.5182 49.6875 50.1496 49.4255 50.6154 48.9597C51.0811 48.494 51.3431 47.8625 51.3439 47.2039V12.4226C51.3431 11.7639 51.0811 11.1325 50.6154 10.6667C50.1496 10.201 49.5182 9.939 48.8595 9.93823V9.93823ZM48.0314 46.3757H4.96887V13.2507H13.2501V17.3914H16.5626V13.2507H36.4376V17.3914H39.7501V13.2507H48.0314V46.3757Z" fill="#818181"></path><path d="M25.1955 32.4397L19.5658 26.81L17.2235 29.1523L25.1955 37.1242L38.1986 24.1211L35.8562 21.7788L25.1955 32.4397V32.4397Z" fill="#DBDBDB"></path></svg>