<svg xmlns="http://www.w3.org/2000/svg" width="765" height="52" viewBox="0 0 765 52" fill="none"><path d="M4.49478 26.6448C4.96148 26.4738 5.20117 25.9568 5.03014 25.4901C4.8591 25.0234 4.34212 24.7837 3.87541 24.9547L4.49478 26.6448ZM10.4721 22.6601C10.0002 22.8162 9.74425 23.3253 9.90038 23.7972C10.0565 24.2691 10.5656 24.5251 11.0375 24.369L10.4721 22.6601ZM17.6399 22.2811C18.1156 22.1372 18.3846 21.6348 18.2406 21.1591C18.0967 20.6833 17.5943 20.4143 17.1186 20.5583L17.6399 22.2811ZM23.7927 18.6201C23.3139 18.7536 23.034 19.25 23.1675 19.7288C23.301 20.2076 23.7974 20.4875 24.2762 20.354L23.7927 18.6201ZM30.9393 18.5662C31.4205 18.4419 31.7099 17.951 31.5857 17.4698C31.4614 16.9885 30.9705 16.6991 30.4892 16.8233L30.9393 18.5662ZM37.2102 15.1511C36.7268 15.267 36.4289 15.7528 36.5448 16.2361C36.6606 16.7195 37.1464 17.0174 37.6298 16.9015L37.2102 15.1511ZM44.3513 15.3477C44.8364 15.2396 45.1421 14.7587 45.034 14.2735C44.9259 13.7883 44.4449 13.4827 43.9598 13.5908L44.3513 15.3477ZM50.7429 12.133C50.2561 12.2338 49.9433 12.7101 50.0442 13.1969C50.145 13.6836 50.6213 13.9964 51.108 13.8956L50.7429 12.133ZM57.904 12.5381C58.3921 12.4442 58.7117 11.9724 58.6177 11.4843C58.5238 10.9962 58.052 10.6766 57.5639 10.7706L57.904 12.5381ZM64.4247 9.49859C63.9353 9.58592 63.6095 10.0534 63.6968 10.5427C63.7841 11.032 64.2516 11.3579 64.7409 11.2706L64.4247 9.49859ZM71.5166 10.1063C72.007 10.0252 72.3389 9.56198 72.2578 9.07158C72.1767 8.58117 71.7135 8.24934 71.2231 8.3304L71.5166 10.1063ZM78.0683 7.24268C77.577 7.31766 77.2394 7.77677 77.3144 8.26814C77.3894 8.75951 77.8485 9.09706 78.3399 9.02208L78.0683 7.24268ZM85.2129 8.01589C85.7051 7.94685 86.0482 7.49183 85.9791 6.9996C85.9101 6.50736 85.4551 6.1643 84.9628 6.23335L85.2129 8.01589ZM91.8252 5.31161C91.3322 5.37493 90.9839 5.82591 91.0472 6.31892C91.1105 6.81193 91.5615 7.16026 92.0545 7.09695L91.8252 5.31161ZM98.9072 6.25661C99.4009 6.1989 99.7543 5.7519 99.6966 5.25821C99.6389 4.76451 99.1919 4.41108 98.6982 4.46879L98.9072 6.25661ZM105.628 3.69818C105.133 3.75036 104.775 4.19338 104.827 4.68769C104.879 5.182 105.322 5.54042 105.817 5.48823L105.628 3.69818ZM112.673 4.80223C113.168 4.75543 113.531 4.31633 113.484 3.82148C113.437 3.32663 112.998 2.96342 112.503 3.01023L112.673 4.80223ZM119.414 2.39401C118.919 2.4355 118.551 2.87068 118.593 3.366C118.634 3.86132 119.069 4.22922 119.565 4.18772L119.414 2.39401ZM126.484 3.64502C126.98 3.60878 127.352 3.17752 127.316 2.68179C127.28 2.18606 126.848 1.81357 126.353 1.84982L126.484 3.64502ZM133.245 1.38184C132.749 1.41294 132.372 1.84031 132.403 2.33639C132.434 2.83248 132.862 3.20942 133.358 3.17831L133.245 1.38184ZM140.298 2.77925C140.794 2.75327 141.175 2.32982 141.149 1.83344C141.123 1.33707 140.7 0.955731 140.203 0.981708L140.298 2.77925ZM147.104 0.655679C146.607 0.676627 146.222 1.09619 146.243 1.59281C146.264 2.08942 146.683 2.47503 147.18 2.45408L147.104 0.655679ZM154.107 2.19695C154.603 2.18102 154.993 1.76536 154.977 1.26856C154.961 0.771759 154.546 0.381942 154.049 0.397878L154.107 2.19695ZM160.978 0.210237C160.481 0.221217 160.087 0.632964 160.098 1.1299C160.109 1.62683 160.521 2.02078 161.018 2.0098L160.978 0.210237ZM167.933 1.89127C168.43 1.88521 168.828 1.47738 168.822 0.980362C168.816 0.483343 168.408 0.0853435 167.911 0.0914053L167.933 1.89127ZM174.858 0.0409195C174.361 0.0420874 173.959 0.445977 173.96 0.943032C173.961 1.44009 174.365 1.84208 174.862 1.84091L174.858 0.0409195ZM181.767 1.85838C182.264 1.86206 182.67 1.46211 182.674 0.965062C182.678 0.46802 182.278 0.062106 181.781 0.0584286L181.767 1.85838ZM188.736 0.143798C188.239 0.13528 187.83 0.53126 187.821 1.02824C187.813 1.52523 188.209 1.93502 188.706 1.94353L188.736 0.143798ZM195.602 2.09499C196.099 2.10829 196.513 1.71628 196.526 1.2194C196.539 0.722524 196.147 0.308939 195.65 0.295634L195.602 2.09499ZM202.607 0.515536C202.111 0.497438 201.693 0.885442 201.675 1.38217C201.657 1.8789 202.045 2.29624 202.542 2.31434L202.607 0.515536ZM209.431 2.5983C209.927 2.62114 210.348 2.23713 210.371 1.7406C210.394 1.24407 210.01 0.823038 209.514 0.8002L209.431 2.5983ZM216.465 1.15331C215.969 1.12572 215.544 1.50568 215.517 2.00197C215.489 2.49826 215.869 2.92295 216.365 2.95054L216.465 1.15331ZM223.248 3.36593C223.744 3.39822 224.173 3.02231 224.205 2.5263C224.237 2.03029 223.861 1.60202 223.365 1.56973L223.248 3.36593ZM230.306 2.05475C229.81 2.01774 229.378 2.38957 229.341 2.88524C229.304 3.38092 229.676 3.81275 230.172 3.84975L230.306 2.05475ZM237.049 4.39586C237.545 4.43754 237.98 4.0698 238.022 3.5745C238.063 3.07919 237.696 2.64388 237.2 2.6022L237.049 4.39586ZM244.125 3.21784C243.63 3.17148 243.191 3.53509 243.145 4.02998C243.098 4.52487 243.462 4.96363 243.957 5.00999L244.125 3.21784ZM250.83 5.68639C251.324 5.73739 251.766 5.37792 251.817 4.88349C251.868 4.38905 251.509 3.94689 251.015 3.89589L250.83 5.68639ZM257.918 4.64087C257.424 4.58522 256.979 4.94052 256.923 5.43445C256.868 5.92838 257.223 6.37391 257.717 6.42956L257.918 4.64087ZM264.585 7.23604C265.079 7.29631 265.528 6.9452 265.588 6.45182C265.648 5.95843 265.297 5.50959 264.804 5.44932L264.585 7.23604ZM271.683 6.32239C271.19 6.2575 270.738 6.60439 270.673 7.09719C270.608 7.59 270.955 8.04209 271.448 8.10698L271.683 6.32239ZM278.312 9.04354C278.804 9.11304 279.26 8.77039 279.329 8.27822C279.399 7.78604 279.056 7.33072 278.564 7.26122L278.312 9.04354ZM285.414 8.26112C284.923 8.18704 284.464 8.52543 284.39 9.01693C284.316 9.50844 284.654 9.96694 285.146 10.041L285.414 8.26112ZM292.006 11.1078C292.497 11.1865 292.958 10.8524 293.037 10.3616C293.116 9.8708 292.782 9.40916 292.291 9.33049L292.006 11.1078ZM299.109 10.4559C298.619 10.3727 298.155 10.7025 298.071 11.1925C297.988 11.6826 298.318 12.1473 298.808 12.2305L299.109 10.4559ZM305.654 13.426C306.143 13.5138 306.611 13.1884 306.698 12.6992C306.786 12.2099 306.461 11.7421 305.972 11.6543L305.654 13.426ZM312.765 12.9058C312.276 12.8135 311.805 13.1346 311.713 13.623C311.621 14.1114 311.942 14.5822 312.43 14.6745L312.765 12.9058ZM319.237 15.994C319.725 16.0908 320.198 15.7741 320.295 15.2866C320.392 14.7991 320.075 14.3253 319.588 14.2285L319.237 15.994ZM326.377 15.6099C325.89 15.5085 325.413 15.8208 325.312 16.3074C325.211 16.794 325.523 17.2707 326.01 17.3721L326.377 15.6099ZM332.775 18.814C333.26 18.9199 333.74 18.612 333.846 18.1264C333.951 17.6407 333.644 17.1612 333.158 17.0553L332.775 18.814ZM339.942 18.5672C339.457 18.4569 338.975 18.7603 338.865 19.2449C338.754 19.7296 339.058 20.2119 339.542 20.3223L339.942 18.5672ZM346.263 21.8854C346.746 22.0002 347.231 21.7012 347.346 21.2176C347.461 20.734 347.162 20.2489 346.678 20.1341L346.263 21.8854ZM353.448 21.7747C352.966 21.6554 352.478 21.9498 352.358 22.4324C352.239 22.9149 352.533 23.4028 353.016 23.5221L353.448 21.7747ZM359.698 25.2071C360.18 25.3308 360.67 25.0409 360.794 24.5595C360.918 24.0781 360.628 23.5875 360.146 23.4637L359.698 25.2071ZM366.865 25.224C366.385 25.0958 365.892 25.3812 365.764 25.8614C365.636 26.3417 365.921 26.8349 366.401 26.9631L366.865 25.224ZM373.111 28.7694C373.591 28.8973 374.084 28.6115 374.212 28.1312C374.34 27.6509 374.054 27.1578 373.574 27.03L373.111 28.7694ZM380.239 28.7666C379.758 28.6439 379.268 28.9348 379.145 29.4164C379.022 29.8981 379.313 30.3881 379.795 30.5109L380.239 28.7666ZM386.47 32.1753C386.953 32.293 387.44 31.997 387.558 31.5141C387.676 31.0312 387.38 30.5443 386.897 30.4265L386.47 32.1753ZM393.611 32.0263C393.127 31.9136 392.643 32.2148 392.531 32.6989C392.418 33.183 392.719 33.6668 393.203 33.7795L393.611 32.0263ZM399.92 35.3059C400.405 35.4136 400.886 35.1075 400.993 34.6222C401.101 34.1369 400.795 33.6563 400.31 33.5486L399.92 35.3059ZM407.043 35.0059C406.557 34.9032 406.079 35.2143 405.976 35.7006C405.874 36.187 406.185 36.6645 406.671 36.7671L407.043 35.0059ZM413.431 38.1572C413.918 38.2548 414.392 37.9389 414.49 37.4515C414.588 36.9641 414.272 36.4899 413.784 36.3923L413.431 38.1572ZM420.528 37.7075C420.04 37.6148 419.569 37.9356 419.476 38.4239C419.384 38.9123 419.705 39.3833 420.193 39.4759L420.528 37.7075ZM426.992 40.7302C427.481 40.8179 427.949 40.4923 428.037 40.0031C428.125 39.5138 427.799 39.0461 427.31 38.9584L426.992 40.7302ZM434.068 40.1344C433.577 40.0517 433.113 40.3819 433.03 40.872C432.947 41.3621 433.278 41.8265 433.768 41.9093L434.068 40.1344ZM440.599 43.0273C441.09 43.1051 441.551 42.7703 441.628 42.2793C441.706 41.7884 441.371 41.3273 440.88 41.2495L440.599 43.0273ZM447.672 42.2914C447.18 42.2185 446.723 42.558 446.65 43.0496C446.577 43.5413 446.916 43.999 447.408 44.0719L447.672 42.2914ZM454.244 45.0511C454.737 45.1192 455.191 44.7752 455.259 44.2828C455.327 43.7904 454.983 43.3361 454.491 43.2681L454.244 45.0511ZM461.313 44.1765C460.82 44.1133 460.369 44.4618 460.306 44.9548C460.243 45.4478 460.592 45.8987 461.085 45.9619L461.313 44.1765ZM467.924 46.8042C468.418 46.8625 468.865 46.5096 468.923 46.016C468.982 45.5224 468.629 45.0749 468.135 45.0166L467.924 46.8042ZM474.986 45.7923C474.492 45.7388 474.048 46.096 473.994 46.5901C473.941 47.0843 474.298 47.5283 474.792 47.5818L474.986 45.7923ZM481.632 48.2889C482.127 48.3376 482.567 47.9761 482.616 47.4814C482.665 46.9868 482.303 46.5463 481.809 46.4976L481.632 48.2889ZM488.685 47.1412C488.19 47.0972 487.753 47.463 487.709 47.9581C487.665 48.4532 488.031 48.8902 488.526 48.9341L488.685 47.1412ZM495.38 49.5091C495.876 49.5483 496.309 49.1783 496.348 48.6828C496.388 48.1873 496.018 47.7539 495.522 47.7147L495.38 49.5091ZM502.406 48.2257C501.91 48.1912 501.48 48.5653 501.445 49.0612C501.411 49.557 501.785 49.9869 502.281 50.0213L502.406 48.2257ZM509.154 50.4656C509.65 50.4953 510.076 50.1172 510.106 49.621C510.135 49.1248 509.757 48.6985 509.261 48.6688L509.154 50.4656ZM516.143 49.048C515.646 49.023 515.224 49.4052 515.199 49.9016C515.174 50.3981 515.556 50.8208 516.052 50.8458L516.143 49.048ZM522.94 51.16C523.437 51.1803 523.856 50.7942 523.876 50.2976C523.897 49.8009 523.511 49.3818 523.014 49.3615L522.94 51.16ZM529.892 49.6105C529.395 49.5948 528.98 49.9849 528.964 50.4817C528.949 50.9785 529.339 51.3939 529.836 51.4096L529.892 49.6105ZM536.736 51.5944C537.233 51.6054 537.645 51.2115 537.656 50.7146C537.667 50.2176 537.273 49.8059 536.776 49.7949L536.736 51.5944ZM543.65 49.9148C543.153 49.9084 542.745 50.3062 542.738 50.8032C542.732 51.3002 543.13 51.7083 543.627 51.7146L543.65 49.9148ZM550.536 51.7707C551.033 51.7724 551.437 51.3709 551.439 50.8738C551.441 50.3768 551.039 49.9724 550.542 49.9707L550.536 51.7707ZM557.411 49.9626C556.914 49.9655 556.514 50.3708 556.517 50.8679C556.519 51.3649 556.925 51.7655 557.422 51.7626L557.411 49.9626ZM564.336 51.6903C564.833 51.6828 565.229 51.2739 565.222 50.7769C565.214 50.2799 564.805 49.883 564.308 49.8905L564.336 51.6903ZM571.173 49.7553C570.676 49.7673 570.283 50.18 570.295 50.6769C570.307 51.1738 570.72 51.5668 571.216 51.5547L571.173 49.7553ZM578.131 51.3545C578.628 51.3378 579.017 50.9216 579 50.4248C578.983 49.928 578.567 49.5388 578.07 49.5555L578.131 51.3545ZM584.93 49.2934C584.433 49.3147 584.048 49.7345 584.069 50.2311C584.091 50.7277 584.51 51.113 585.007 51.0918L584.93 49.2934ZM591.917 50.7638C592.413 50.738 592.795 50.3146 592.769 49.8182C592.743 49.3218 592.32 48.9404 591.823 48.9663L591.917 50.7638ZM598.679 48.5774C598.183 48.6078 597.805 49.0347 597.836 49.5308C597.866 50.0269 598.293 50.4044 598.789 50.374L598.679 48.5774ZM605.688 49.9185C606.184 49.8835 606.558 49.4532 606.523 48.9573C606.488 48.4615 606.057 48.088 605.562 48.123L605.688 49.9185ZM612.415 47.6067C611.919 47.6464 611.55 48.0802 611.59 48.5756C611.629 49.0711 612.063 49.4406 612.558 49.401L612.415 47.6067ZM619.44 48.8182C619.935 48.774 620.3 48.3367 620.256 47.8416C620.212 47.3466 619.775 46.9811 619.28 47.0254L619.44 48.8182ZM626.132 46.3804C625.638 46.4293 625.276 46.87 625.325 47.3646C625.374 47.8592 625.815 48.2206 626.309 48.1717L626.132 46.3804ZM633.164 47.4617C633.658 47.4082 634.015 46.9642 633.962 46.47C633.908 45.9758 633.464 45.6186 632.97 45.6722L633.164 47.4617ZM639.824 44.8966C639.331 44.9549 638.978 45.4022 639.036 45.8959C639.094 46.3895 639.542 46.7425 640.035 46.6842L639.824 44.8966ZM646.851 45.8472C647.344 45.7843 647.693 45.3336 647.63 44.8405C647.567 44.3475 647.117 43.9988 646.623 44.0617L646.851 45.8472ZM653.482 43.1525C652.989 43.2203 652.645 43.6744 652.713 44.1668C652.78 44.6592 653.234 45.0035 653.727 44.9358L653.482 43.1525ZM660.529 43.9665C661.021 43.894 661.361 43.4366 661.288 42.9448C661.216 42.4531 660.758 42.1132 660.267 42.1858L660.529 43.9665ZM667.091 41.1446C666.6 41.222 666.265 41.6828 666.342 42.1738C666.42 42.6648 666.881 43.0001 667.372 42.9227L667.091 41.1446ZM674.185 41.8132C674.675 41.7309 675.006 41.2667 674.923 40.7765C674.841 40.2864 674.377 39.9558 673.887 40.0381L674.185 41.8132ZM680.635 38.8685C680.146 38.9559 679.82 39.4235 679.908 39.9128C679.995 40.4021 680.462 40.7279 680.952 40.6405L680.635 38.8685ZM687.777 39.3843C688.265 39.2917 688.586 38.8208 688.493 38.3324C688.401 37.844 687.93 37.5232 687.441 37.6158L687.777 39.3843ZM694.183 36.3C693.696 36.3978 693.38 36.8722 693.478 37.3596C693.576 37.8469 694.05 38.1626 694.538 38.0647L694.183 36.3ZM701.274 36.673C701.761 36.5697 702.071 36.0919 701.968 35.6057C701.864 35.1195 701.387 34.809 700.9 34.9123L701.274 36.673ZM707.657 33.4359C707.172 33.5449 706.867 34.0264 706.976 34.5113C707.085 34.9963 707.567 35.3011 708.052 35.1922L707.657 33.4359ZM714.774 33.6393C715.257 33.5245 715.556 33.0393 715.442 32.5557C715.327 32.0721 714.842 31.7732 714.358 31.888L714.774 33.6393ZM721.006 30.2652C720.524 30.3862 720.231 30.875 720.352 31.3572C720.473 31.8393 720.962 32.132 721.444 32.0111L721.006 30.2652ZM728.143 30.2823C728.624 30.1548 728.91 29.6619 728.782 29.1815C728.655 28.7011 728.162 28.415 727.681 28.5425L728.143 30.2823ZM734.34 26.7237C733.861 26.8582 733.582 27.3552 733.717 27.8337C733.851 28.3122 734.348 28.591 734.827 28.4565L734.34 26.7237ZM741.467 26.5329C741.944 26.3907 742.214 25.8893 742.072 25.413C741.93 24.9368 741.429 24.6659 740.952 24.8081L741.467 26.5329ZM747.523 22.7842C747.049 22.9348 746.787 23.4409 746.938 23.9146C747.089 24.3883 747.595 24.6502 748.068 24.4995L747.523 22.7842ZM754.632 22.3401C755.102 22.1798 755.354 21.6685 755.193 21.198C755.033 20.7275 754.522 20.476 754.051 20.6363L754.632 22.3401ZM760.531 18.3434C760.064 18.5151 759.825 19.0324 759.997 19.4989C760.169 19.9653 760.686 20.2043 761.153 20.0325L760.531 18.3434ZM1.32567 27.8395C2.34362 27.4444 3.40016 27.0459 4.49478 26.6448L3.87541 24.9547C2.77058 25.3596 1.70336 25.7621 0.674331 26.1615L1.32567 27.8395ZM11.0375 24.369C13.1328 23.6757 15.3345 22.9787 17.6399 22.2811L17.1186 20.5583C14.7991 21.2601 12.5827 21.9618 10.4721 22.6601L11.0375 24.369ZM24.2762 20.354C26.4228 19.7554 28.6444 19.1587 30.9393 18.5662L30.4892 16.8233C28.1835 17.4187 25.9507 18.0183 23.7927 18.6201L24.2762 20.354ZM37.6298 16.9015C39.8129 16.3781 42.0538 15.8597 44.3513 15.3477L43.9598 13.5908C41.6531 14.1049 39.4028 14.6255 37.2102 15.1511L37.6298 16.9015ZM51.108 13.8956C53.3266 13.4359 55.5922 12.9831 57.904 12.5381L57.5639 10.7706C55.2438 11.2171 52.9698 11.6716 50.7429 12.133L51.108 13.8956ZM64.7409 11.2706C66.961 10.8744 69.2198 10.4859 71.5166 10.1063L71.2231 8.3304C68.9188 8.71129 66.6524 9.10101 64.4247 9.49859L64.7409 11.2706ZM78.3399 9.02208C80.5973 8.67761 82.8886 8.34194 85.2129 8.01589L84.9628 6.23335C82.6314 6.5604 80.333 6.89712 78.0683 7.24268L78.3399 9.02208ZM92.0545 7.09695C94.31 6.80731 96.5944 6.52696 98.9072 6.25661L98.6982 4.46879C96.3786 4.73993 94.0874 5.0211 91.8252 5.31161L92.0545 7.09695ZM105.817 5.48823C108.077 5.24964 110.362 5.02077 112.673 4.80223L112.503 3.01023C110.186 3.22939 107.894 3.4589 105.628 3.69818L105.817 5.48823ZM119.565 4.18772C121.848 3.9964 124.155 3.81532 126.484 3.64502L126.353 1.84982C124.017 2.02058 121.704 2.20216 119.414 2.39401L119.565 4.18772ZM133.358 3.17831C135.651 3.03455 137.964 2.90137 140.298 2.77925L140.203 0.981708C137.864 1.10415 135.544 1.2377 133.245 1.38184L133.358 3.17831ZM147.18 2.45408C149.47 2.35746 151.779 2.2716 154.107 2.19695L154.049 0.397878C151.716 0.472724 149.401 0.558806 147.104 0.655679L147.18 2.45408ZM161.018 2.0098C163.306 1.95923 165.611 1.91959 167.933 1.89127L167.911 0.0914053C165.583 0.119792 163.272 0.159537 160.978 0.210237L161.018 2.0098ZM174.862 1.84091C177.149 1.83554 179.451 1.84124 181.767 1.85838L181.781 0.0584286C179.458 0.0412453 177.15 0.0355326 174.858 0.0409195L174.862 1.84091ZM188.706 1.94353C190.991 1.9827 193.29 2.03307 195.602 2.09499L195.65 0.295634C193.332 0.23356 191.027 0.183062 188.736 0.143798L188.706 1.94353ZM202.542 2.31434C204.826 2.39756 207.122 2.4921 209.431 2.5983L209.514 0.8002C207.199 0.693738 204.897 0.598957 202.607 0.515536L202.542 2.31434ZM216.365 2.95054C218.648 3.07745 220.943 3.21581 223.248 3.36593L223.365 1.56973C221.054 1.41924 218.754 1.28053 216.465 1.15331L216.365 2.95054ZM230.172 3.84975C232.454 4.02012 234.746 4.20206 237.049 4.39586L237.2 2.6022C234.892 2.40793 232.593 2.22554 230.306 2.05475L230.172 3.84975ZM243.957 5.00999C246.238 5.22367 248.529 5.44905 250.83 5.68639L251.015 3.89589C248.708 3.65797 246.412 3.43204 244.125 3.21784L243.957 5.00999ZM257.717 6.42956C259.997 6.68649 262.287 6.95523 264.585 7.23604L264.804 5.44932C262.5 5.16783 260.204 4.89843 257.918 4.64087L257.717 6.42956ZM271.448 8.10698C273.727 8.40716 276.016 8.71926 278.312 9.04354L278.564 7.26122C276.262 6.93616 273.968 6.62329 271.683 6.32239L271.448 8.10698ZM285.146 10.041C287.425 10.3845 289.712 10.74 292.006 11.1078L292.291 9.33049C289.991 8.9618 287.699 8.60542 285.414 8.26112L285.146 10.041ZM298.808 12.2305C301.083 12.6168 303.365 13.0153 305.654 13.426L305.972 11.6543C303.677 11.2426 301.389 10.8432 299.109 10.4559L298.808 12.2305ZM312.43 14.6745C314.693 15.1021 316.962 15.5419 319.237 15.994L319.588 14.2285C317.307 13.7753 315.032 13.3345 312.765 12.9058L312.43 14.6745ZM326.01 17.3721C328.258 17.8405 330.513 18.3211 332.775 18.814L333.158 17.0553C330.891 16.5612 328.631 16.0795 326.377 15.6099L326.01 17.3721ZM339.542 20.3223C341.777 20.8312 344.017 21.3521 346.263 21.8854L346.678 20.1341C344.427 19.5995 342.182 19.0773 339.942 18.5672L339.542 20.3223ZM353.016 23.5221C355.238 24.0716 357.466 24.6332 359.698 25.2071L360.146 23.4637C357.909 22.8885 355.676 22.3255 353.448 21.7747L353.016 23.5221ZM366.401 26.9631C367.521 27.2619 368.642 27.5639 369.764 27.869L370.236 26.1321C369.111 25.8262 367.988 25.5235 366.865 25.224L366.401 26.9631ZM369.764 27.869C370.88 28.1725 371.996 28.4726 373.111 28.7694L373.574 27.03C372.462 26.734 371.349 26.4347 370.236 26.1321L369.764 27.869ZM379.795 30.5109C382.022 31.0787 384.248 31.6334 386.47 32.1753L386.897 30.4265C384.68 29.8861 382.461 29.3329 380.239 28.7666L379.795 30.5109ZM393.203 33.7795C395.445 34.3012 397.684 34.8099 399.92 35.3059L400.31 33.5486C398.08 33.054 395.847 32.5466 393.611 32.0263L393.203 33.7795ZM406.671 36.7671C408.928 37.2432 411.181 37.7065 413.431 38.1572L413.784 36.3923C411.54 35.9428 409.293 35.4807 407.043 35.0059L406.671 36.7671ZM420.193 39.4759C422.463 39.9067 424.73 40.3247 426.992 40.7302L427.31 38.9584C425.053 38.554 422.793 38.1371 420.528 37.7075L420.193 39.4759ZM433.768 41.9093C436.049 42.2945 438.326 42.6671 440.599 43.0273L440.88 41.2495C438.614 40.8902 436.343 40.5186 434.068 40.1344L433.768 41.9093ZM447.408 44.0719C449.692 44.4106 451.97 44.737 454.244 45.0511L454.491 43.2681C452.223 42.9547 449.95 42.6292 447.672 42.2914L447.408 44.0719ZM461.085 45.9619C463.37 46.2547 465.65 46.5354 467.924 46.8042L468.135 45.0166C465.867 44.7485 463.593 44.4686 461.313 44.1765L461.085 45.9619ZM474.792 47.5818C477.078 47.8293 479.358 48.0649 481.632 48.2889L481.809 46.4976C479.54 46.2742 477.266 46.0391 474.986 45.7923L474.792 47.5818ZM488.526 48.9341C490.817 49.1374 493.102 49.329 495.38 49.5091L495.522 47.7147C493.25 47.535 490.971 47.3439 488.685 47.1412L488.526 48.9341ZM502.281 50.0213C504.579 50.1809 506.87 50.3289 509.154 50.4656L509.261 48.6688C506.983 48.5324 504.698 48.3848 502.406 48.2257L502.281 50.0213ZM516.052 50.8458C518.356 50.9618 520.653 51.0664 522.94 51.16L523.014 49.3615C520.732 49.2682 518.441 49.1638 516.143 49.048L516.052 50.8458ZM529.836 51.4096C532.145 51.4823 534.445 51.5438 536.736 51.5944L536.776 49.7949C534.49 49.7444 532.196 49.683 529.892 49.6105L529.836 51.4096ZM543.627 51.7146C545.94 51.7442 548.243 51.7628 550.536 51.7707L550.542 49.9707C548.255 49.9628 545.957 49.9443 543.65 49.9148L543.627 51.7146ZM557.422 51.7626C559.737 51.7492 562.042 51.725 564.336 51.6903L564.308 49.8905C562.02 49.9251 559.721 49.9492 557.411 49.9626L557.422 51.7626ZM571.216 51.5547C573.533 51.4984 575.838 51.4315 578.131 51.3545L578.07 49.5555C575.783 49.6323 573.484 49.699 571.173 49.7553L571.216 51.5547ZM585.007 51.0918C587.324 50.9926 589.627 50.8831 591.917 50.7638L591.823 48.9663C589.539 49.0853 587.241 49.1945 584.93 49.2934L585.007 51.0918ZM598.789 50.374C601.104 50.232 603.404 50.08 605.688 49.9185L605.562 48.123C603.282 48.2841 600.988 48.4357 598.679 48.5774L598.789 50.374ZM612.558 49.401C614.869 49.2162 617.162 49.0218 619.44 48.8182L619.28 47.0254C617.008 47.2284 614.719 47.4224 612.415 47.6067L612.558 49.401ZM626.309 48.1717C628.612 47.9441 630.897 47.7073 633.164 47.4617L632.97 45.6722C630.709 45.9171 628.43 46.1534 626.132 46.3804L626.309 48.1717ZM640.035 46.6842C642.327 46.4138 644.6 46.1347 646.851 45.8472L646.623 44.0617C644.377 44.3484 642.111 44.6269 639.824 44.8966L640.035 46.6842ZM653.727 44.9358C656.017 44.6208 658.285 44.2975 660.529 43.9665L660.267 42.1858C658.028 42.5159 655.766 42.8384 653.482 43.1525L653.727 44.9358ZM667.372 42.9227C669.669 42.5605 671.94 42.1905 674.185 41.8132L673.887 40.0381C671.648 40.4144 669.382 40.7834 667.091 41.1446L667.372 42.9227ZM680.952 40.6405C683.257 40.2288 685.532 39.8098 687.777 39.3843L687.441 37.6158C685.203 38.0401 682.934 38.4579 680.635 38.8685L680.952 40.6405ZM694.538 38.0647C696.818 37.6069 699.064 37.1427 701.274 36.673L700.9 34.9123C698.696 35.3806 696.457 35.8434 694.183 36.3L694.538 38.0647ZM708.052 35.1922C710.334 34.6794 712.575 34.1614 714.774 33.6393L714.358 31.888C712.166 32.4084 709.932 32.9248 707.657 33.4359L708.052 35.1922ZM721.444 32.0111C723.728 31.438 725.961 30.8613 728.143 30.2823L727.681 28.5425C725.508 29.1194 723.282 29.6941 721.006 30.2652L721.444 32.0111ZM734.827 28.4565C737.105 27.8159 739.319 27.1741 741.467 26.5329L740.952 24.8081C738.814 25.4465 736.609 26.0856 734.34 26.7237L734.827 28.4565ZM748.068 24.4995C750.344 23.7758 752.533 23.0551 754.632 22.3401L754.051 20.6363C751.964 21.3472 749.787 22.064 747.523 22.7842L748.068 24.4995ZM761.153 20.0325C762.24 19.6324 763.296 19.2349 764.323 18.8406L763.677 17.1604C762.659 17.5515 761.61 17.946 760.531 18.3434L761.153 20.0325Z" fill="#E6E6E6"></path></svg>