<svg xmlns="http://www.w3.org/2000/svg" width="239" height="240" viewBox="0 0 239 240" fill="none"><path d="M81.5169 233.424L81.5112 233.422C53.1958 227.305 34.4033 207.899 22.041 183.633C9.67078 159.352 3.78924 130.291 1.29519 105.102C-1.46542 76.9516 11.7851 51.8451 32.5777 33.3215C53.3768 14.7921 81.6401 2.93408 108.66 1.29799L108.663 1.29781C129.025 0.00660111 148.916 2.98428 169.363 7.97138L169.372 7.9734C180.407 10.5613 188.54 16.8107 195.561 24.523C199.074 28.3833 202.3 32.5993 205.47 36.8995C206.302 38.0284 207.132 39.1644 207.962 40.3011C210.279 43.475 212.601 46.6546 215 49.7001C216.97 52.46 218.749 55.3251 220.54 58.3107C227.478 70.1056 232.336 83.0916 234.915 97.0741C235.511 100.552 236.007 104.12 236.303 107.683L236.304 107.694L236.306 107.705C240.973 151.901 223.485 198.688 183.977 223.248C155.393 240.653 122.9 240.002 91.7609 235.513C88.4821 234.916 85.101 234.22 81.5169 233.424Z" stroke="#262626" stroke-width="2"></path></svg>