<svg xmlns="http://www.w3.org/2000/svg" width="71" height="85" viewBox="0 0 71 85" fill="none"><g clip-path="url(#clip0_150_223)"><path d="M48.2479 12.8658C48.5039 15.2526 48.76 17.6395 49.0161 20.0263C49.2722 22.4131 49.5283 24.8 49.7844 27.1868C50.0404 29.5736 50.2835 31.9911 50.5396 34.378C50.7957 36.7648 51.0518 39.1516 51.3079 41.5385C51.5639 43.9253 51.82 46.3121 52.0761 48.699C52.095 48.9963 52.1445 49.3066 52.1634 49.6039C52.2 49.9449 52.3109 50.2811 52.5091 50.582C52.6637 50.9005 52.8749 51.1707 53.1864 51.3748C53.4849 51.6096 53.8094 51.783 54.1551 51.8208C54.4925 51.9635 54.8512 51.9706 55.2051 51.9034C55.8694 51.7865 56.5808 51.4727 56.9631 50.9111C57.402 50.3011 57.6132 49.6309 57.5223 48.9053C57.2662 46.5185 57.0101 44.1316 56.754 41.7448C56.472 39.4193 56.2289 37.0018 55.9728 34.615C55.7167 32.2282 55.4736 29.8107 55.2176 27.4238C54.9615 25.037 54.7054 22.6502 54.4623 20.2327C54.2062 17.8458 53.9501 15.459 53.6941 13.0722C53.6752 12.7748 53.6256 12.4645 53.6067 12.1672C53.5702 11.8263 53.4592 11.49 53.261 11.1891C53.1064 10.8706 52.8952 10.6004 52.5838 10.3963C52.2853 10.1615 51.9608 9.98808 51.6151 9.95033C51.2777 9.80758 50.919 9.80051 50.565 9.86777C49.9008 9.98459 49.1893 10.2984 48.8071 10.8601C48.3812 11.4394 48.17 12.1095 48.2479 12.8658Z" fill="#535353"></path><path d="M23.5066 34.5874C24.1013 36.4303 24.7089 38.2425 25.3166 40.0547C25.955 41.88 26.5933 43.7052 27.3189 45.495C28.0446 47.2848 28.8269 49.0263 29.6964 50.7323C30.6368 52.613 31.7082 54.4405 32.8928 56.1713C33.9629 57.7452 35.1334 59.2531 36.4431 60.6028C36.764 60.9555 37.0672 61.2647 37.4011 61.5868C37.6996 61.8215 38.0241 61.995 38.3698 62.0327C38.7072 62.1755 39.0659 62.1825 39.4199 62.1153C39.7608 62.0787 40.0971 61.9678 40.3979 61.7696C40.7165 61.615 40.9867 61.4038 41.1908 61.0923C41.3123 60.8906 41.4338 60.6888 41.5683 60.4564C41.763 59.9962 41.809 59.5455 41.763 59.0559C41.7051 58.8506 41.6603 58.6146 41.5718 58.3963C41.3948 57.9598 41.1176 57.5893 40.74 57.2849C40.7223 57.2413 40.6609 57.2153 40.6432 57.1717C40.7884 57.3416 40.9772 57.4938 41.1223 57.6637C39.3336 55.822 37.8021 53.7997 36.4405 51.6324C36.0441 51.0307 35.6913 50.4112 35.3385 49.7918C35.4399 49.9794 35.5721 50.18 35.6606 50.3983C34.417 48.2085 33.3916 45.9302 32.4229 43.6036C31.4589 41.3513 30.6212 38.9715 29.8271 36.5741C29.3834 35.2291 28.9398 33.8841 28.4961 32.539C28.3852 32.2028 28.174 31.9326 27.9192 31.6801C27.6773 31.397 27.3965 31.2058 27.0591 31.0631C26.7216 30.9203 26.3582 30.8389 26.0172 30.8755C25.6715 30.8378 25.3176 30.905 24.999 31.0596C24.3749 31.338 23.7649 31.8395 23.5231 32.4967C23.4629 32.7244 23.4027 32.9521 23.3296 33.2105C23.2706 33.6919 23.3426 34.1201 23.5066 34.5874Z" fill="#535353"></path><path d="M6.51378 64.3245C6.58339 64.2455 6.6707 64.2101 6.77099 64.144C6.58339 64.2455 6.38282 64.3776 6.16455 64.4661C6.26484 64.4 6.38282 64.3776 6.50081 64.3552C6.29552 64.413 6.05955 64.4579 5.84128 64.5464C5.95926 64.5239 6.07724 64.5015 6.22591 64.4921C6.00291 64.5062 5.76223 64.4767 5.53923 64.4909C5.71857 64.4944 5.92858 64.511 6.11264 64.5888C5.88493 64.5287 5.65722 64.4685 5.39883 64.3953C5.74925 64.5074 6.08668 64.6502 6.38047 64.8106C6.17871 64.6891 5.97696 64.5676 5.74452 64.4331C6.44183 64.8366 7.01289 65.3675 7.64058 65.8501C8.378 66.4152 9.14609 66.9933 9.88351 67.5584C11.402 68.671 12.9335 69.7529 14.4779 70.8041C17.8122 73.0103 21.2551 75.0455 24.8065 76.9096C26.7049 77.8935 28.6162 78.8468 30.5666 79.7081C30.904 79.8508 31.2674 79.9322 31.6084 79.8956C31.9541 79.9334 32.308 79.8661 32.6266 79.7116C32.9628 79.6006 33.233 79.3894 33.4855 79.1346C33.7686 78.8927 33.9598 78.6119 34.1025 78.2745C34.3444 77.6173 34.4152 76.8516 34.106 76.2145C33.8099 75.5467 33.3308 75.0547 32.6689 74.7385C29.8113 73.4572 27.0056 72.0533 24.2825 70.5396C23.5238 70.1101 22.7345 69.6677 21.9888 69.2076C22.1906 69.3291 22.3923 69.4506 22.6248 69.5851C20.2214 68.1705 17.8699 66.6332 15.5751 65.0476C14.4341 64.2394 13.3239 63.4442 12.2089 62.5747C11.6602 62.1618 11.0939 61.7052 10.5453 61.2922C10.1064 60.9619 9.68042 60.6009 9.22853 60.3012C8.79434 60.0452 8.37313 59.7585 7.91298 59.5638C7.48351 59.3821 6.99741 59.2488 6.52901 59.1591C5.41287 58.9763 4.16341 59.2795 3.31394 60.0052C3.01308 60.2034 2.79127 60.4712 2.61784 60.7957C2.41373 61.1072 2.27098 61.4446 2.23323 61.7903C2.1825 62.1667 2.18842 62.4947 2.29933 62.8309C2.36659 63.1849 2.49048 63.4905 2.73235 63.7736C3.18543 64.327 3.8261 64.7788 4.53047 64.8237C5.22186 64.8991 5.96044 64.7776 6.51378 64.3245Z" fill="#535353"></path></g><defs><clipPath id="clip0_150_223"><rect width="72.5461" height="46.3322" fill="white" transform="translate(70.9362 18.0518) rotate(112.931)"></rect></clipPath></defs></svg>