<svg width="22" height="22" viewBox="0 0 22 22" fill="none" xmlns="http://www.w3.org/2000/svg">
<path d="M10.4183 20C10.0341 20 9.66098 19.8463 9.38659 19.572L8.6622 18.8476C8.62927 18.9024 8.58537 18.9463 8.54146 18.9902L7.95976 19.572C7.68537 19.8463 7.32317 20 6.93902 20C6.55488 20 6.18171 19.8463 5.90732 19.572L2.42805 16.0927C1.85732 15.522 1.85732 14.611 2.42805 14.0402L3.00976 13.4585C3.05366 13.4146 3.09756 13.3707 3.15244 13.3378L2.42805 12.6024C1.85732 12.0317 1.85732 11.1207 2.42805 10.55L3.00976 9.96829C3.28415 9.70488 3.64634 9.55122 4.03049 9.55122C4.41463 9.55122 4.77683 9.70488 5.05122 9.97927L6.93902 11.8561L11.8451 6.93902L9.96829 5.0622C9.70488 4.7878 9.55122 4.41463 9.55122 4.03049C9.55122 3.64634 9.70488 3.27317 9.97927 2.99878L10.561 2.41707C10.8244 2.15366 11.1976 2 11.5817 2C11.9659 2 12.328 2.15366 12.6024 2.42805L13.3268 3.15244C13.3707 3.09756 13.4146 3.05366 13.4585 3.00976L14.0402 2.42805C14.3146 2.15366 14.6768 2 15.061 2C15.4451 2 15.8073 2.15366 16.0817 2.42805L19.561 5.90732C20.1317 6.47805 20.1317 7.38902 19.561 7.95976L18.9793 8.54146C18.9463 8.58537 18.9024 8.62927 18.8476 8.6622L19.572 9.38659C20.1427 9.95732 20.1427 10.8683 19.572 11.439L18.9902 12.0207C18.7159 12.2951 18.3537 12.4488 17.9585 12.4488C17.5744 12.4488 17.2122 12.2951 16.9378 12.0207L15.061 10.1439L10.1439 15.061L12.0207 16.9378C12.5915 17.5085 12.5915 18.4195 12.0207 18.9902L11.439 19.572C11.1756 19.8463 10.8024 20 10.4183 20ZM4.03049 10.8134C3.97561 10.8134 3.93171 10.8354 3.89878 10.8683L3.31707 11.45C3.28415 11.4829 3.2622 11.5268 3.2622 11.5817C3.2622 11.6366 3.28415 11.6805 3.31707 11.7134L10.2866 18.6829C10.3195 18.7159 10.3744 18.7378 10.4183 18.7378C10.4622 18.7378 10.5171 18.7159 10.55 18.6829L11.1317 18.1012C11.1976 18.0354 11.1976 17.8927 11.1317 17.8268L4.1622 10.8683C4.12927 10.8244 4.08537 10.8134 4.03049 10.8134ZM4.03049 14.2927C3.97561 14.2927 3.93171 14.3146 3.89878 14.3476L3.31707 14.9293C3.28415 14.9622 3.2622 15.0171 3.2622 15.061C3.2622 15.1159 3.28415 15.1598 3.31707 15.1927L6.79634 18.6829C6.82927 18.7159 6.88415 18.7378 6.92805 18.7378C6.97195 18.7378 7.02683 18.7159 7.05976 18.6829L7.64146 18.1012C7.70732 18.0354 7.70732 17.8927 7.64146 17.8268L4.1622 14.3476C4.12927 14.3146 4.08537 14.2927 4.03049 14.2927ZM9.25488 14.172L14.172 9.25488L12.7451 7.82805L7.82805 12.7451L9.25488 14.172ZM11.5817 3.2622C11.5268 3.2622 11.4829 3.28415 11.45 3.31707L10.8683 3.89878C10.8024 3.96463 10.8024 4.10732 10.8683 4.17317L17.8378 11.1427C17.8707 11.1756 17.9256 11.1976 17.9695 11.1976C18.0134 11.1976 18.0683 11.1756 18.1012 11.1427L18.6829 10.561C18.7598 10.4841 18.7598 10.3634 18.6829 10.2866L11.7134 3.31707C11.6805 3.28415 11.6366 3.2622 11.5817 3.2622ZM15.061 3.2622C15.0061 3.2622 14.9622 3.28415 14.9293 3.31707L14.3476 3.89878C14.3146 3.93171 14.2927 3.97561 14.2927 4.03049C14.2927 4.08537 14.3146 4.12927 14.3476 4.1622L17.8268 7.65244C17.8598 7.68537 17.9146 7.70732 17.9585 7.70732C18.0024 7.70732 18.0573 7.68537 18.0902 7.65244L18.672 7.07073C18.7488 6.9939 18.7488 6.87317 18.672 6.79634L15.2037 3.31707C15.1598 3.28415 15.1159 3.2622 15.061 3.2622Z" fill="#FF3C48"/>
</svg>
