<svg width="22" height="19" viewBox="0 0 22 19" fill="none" xmlns="http://www.w3.org/2000/svg">
<path d="M17.9811 18.14V17.3093C17.9811 16.8753 17.6339 16.5282 17.1999 16.5282H14.0257C14.6705 16.0446 15.2532 15.4494 15.7244 14.7923H18.0306C19.8285 14.7923 21.2916 13.3292 21.2916 11.5313C21.2916 9.7334 19.8285 8.27029 18.0306 8.27029H17.1627V7.40235C17.1627 6.96838 16.8155 6.6212 16.3816 6.6212H2.32088C1.88691 6.6212 1.53973 6.96838 1.53973 7.40235V10.2914C1.53973 12.7836 2.70525 15.065 4.66433 16.5282H1.49013C1.05616 16.5282 0.708984 16.8877 0.708984 17.3217V18.1524H2.28368H16.4188H17.9811V18.14ZM15.588 10.2914C15.588 13.7383 12.7858 16.5282 9.35122 16.5282C5.90424 16.5282 3.11443 13.7259 3.11443 10.2914V8.1835H15.588V10.2914ZM18.0306 13.23H16.5799C16.9643 12.2876 17.1627 11.3081 17.1627 10.2914V9.83259H18.0306C18.9606 9.83259 19.7293 10.5889 19.7293 11.5313C19.7293 12.4736 18.9606 13.23 18.0306 13.23Z" fill="#FF3C48"/>
<path d="M6.31284 3.55857C6.53602 3.67016 6.68481 3.81895 6.69721 3.95534C6.70961 4.10413 6.54842 4.24052 6.47403 4.29012C6.12685 4.5505 6.04006 5.03407 6.30044 5.38125C6.44923 5.57963 6.69721 5.70363 6.9452 5.70363C7.10639 5.70363 7.26757 5.65403 7.40397 5.55484C8.01153 5.12086 8.32151 4.47611 8.25951 3.81895C8.19751 3.1122 7.73874 2.50464 6.99479 2.14506C6.77161 2.03347 6.62282 1.88468 6.61042 1.74829C6.61042 1.61189 6.77161 1.4755 6.8336 1.42591C7.18078 1.16552 7.26757 0.681955 7.00719 0.334778C6.8708 0.123992 6.62282 0 6.37483 0C6.21364 0 6.05245 0.0495967 5.91606 0.14879C5.3085 0.582762 4.99852 1.22752 5.04812 1.88468C5.12252 2.59143 5.58128 3.19899 6.31284 3.55857Z" fill="#FF3C48"/>
<path d="M10.2445 3.55857C10.4677 3.67016 10.6165 3.81895 10.6289 3.95534C10.6413 4.10413 10.4801 4.22812 10.4057 4.29012C10.0585 4.5505 9.9841 5.03407 10.2321 5.38125C10.3809 5.57963 10.6165 5.70363 10.8768 5.70363C11.038 5.70363 11.1992 5.65403 11.3356 5.55484C11.9432 5.12086 12.2532 4.47611 12.2036 3.81895C12.1292 3.1122 11.6704 2.50464 10.9264 2.14506C10.7033 2.03347 10.5545 1.88468 10.5421 1.74829C10.5297 1.61189 10.6909 1.4755 10.7653 1.42591C11.1124 1.16552 11.1992 0.681955 10.9388 0.334778C10.7901 0.123992 10.5545 0 10.3065 0C10.1329 0 9.9717 0.0495967 9.84771 0.14879C9.24015 0.582762 8.93017 1.22752 8.99217 1.88468C9.04176 2.59143 9.50054 3.19899 10.2445 3.55857Z" fill="#FF3C48"/>
</svg>
