<svg width="20" height="20" viewBox="0 0 20 20" fill="none" xmlns="http://www.w3.org/2000/svg">
<path d="M1.66797 18.3334H18.3346" stroke="#FF3C48" stroke-width="1.2" stroke-miterlimit="10" stroke-linecap="round" stroke-linejoin="round"/>
<path d="M2.45898 18.3334L2.50065 8.30835C2.50065 7.80002 2.74232 7.31673 3.14232 7.00006L8.97565 2.45838C9.57565 1.99172 10.4173 1.99172 11.0257 2.45838L16.859 6.99172C17.2673 7.30839 17.5007 7.79168 17.5007 8.30835V18.3334" stroke="#FF3C48" stroke-width="1.2" stroke-miterlimit="10" stroke-linejoin="round"/>
<path d="M10.8346 14.1666H9.16797C8.4763 14.1666 7.91797 14.725 7.91797 15.4166V18.3333H12.0846V15.4166C12.0846 14.725 11.5263 14.1666 10.8346 14.1666Z" stroke="#FF3C48" stroke-width="1.2" stroke-miterlimit="10" stroke-linejoin="round"/>
<path d="M7.91797 11.4583H6.2513C5.79297 11.4583 5.41797 11.0833 5.41797 10.625V9.37497C5.41797 8.91664 5.79297 8.54164 6.2513 8.54164H7.91797C8.3763 8.54164 8.7513 8.91664 8.7513 9.37497V10.625C8.7513 11.0833 8.3763 11.4583 7.91797 11.4583Z" stroke="#FF3C48" stroke-width="1.2" stroke-miterlimit="10" stroke-linejoin="round"/>
<path d="M13.75 11.4583H12.0833C11.625 11.4583 11.25 11.0833 11.25 10.625V9.375C11.25 8.91667 11.625 8.54167 12.0833 8.54167H13.75C14.2083 8.54167 14.5833 8.91667 14.5833 9.375V10.625C14.5833 11.0833 14.2083 11.4583 13.75 11.4583Z" stroke="#FF3C48" stroke-width="1.2" stroke-miterlimit="10" stroke-linejoin="round"/>
<path d="M15.8323 5.83333L15.8073 3.33333H12.1406" stroke="#FF3C48" stroke-width="1.2" stroke-miterlimit="10" stroke-linecap="round" stroke-linejoin="round"/>
</svg>
