<svg width="120" height="52" viewBox="0 0 120 52" fill="none" xmlns="http://www.w3.org/2000/svg">
<path d="M0 1.24023H5.70508V27.3834H18.5657V32.154H0V1.24023Z" fill="#111111"/>
<path d="M28.7187 3.53026C28.7187 5.24769 27.4617 6.58347 25.4311 6.58347C23.4971 6.58347 22.3368 5.24769 22.3368 3.53026C22.3368 1.81283 23.5938 0.477051 25.5278 0.477051C27.4617 0.477051 28.7187 1.81283 28.7187 3.53026ZM22.7236 32.0587V9.82751H28.4287V32.1541H22.7236V32.0587Z" fill="#111111"/>
<path d="M34.3271 26.9063C35.5842 27.6696 38.0016 28.5283 40.1289 28.5283C42.643 28.5283 43.8034 27.4788 43.8034 26.0476C43.8034 24.521 42.8364 23.7577 40.1289 22.8036C35.6809 21.2769 33.8437 18.8916 33.8437 16.3155C33.8437 12.4036 37.1313 9.35034 42.4496 9.35034C44.9637 9.35034 47.091 9.92282 48.4448 10.6861L47.2844 14.598C46.3175 14.0256 44.4802 13.3577 42.5463 13.3577C40.5157 13.3577 39.3553 14.3118 39.3553 15.743C39.3553 17.1742 40.419 17.8421 43.3199 18.8916C47.4778 20.3228 49.3151 22.4219 49.3151 25.6659C49.3151 29.7687 46.1241 32.6311 40.1289 32.6311C37.4214 32.6311 34.9073 31.9632 33.2635 31.1045L34.3271 26.9063Z" fill="#111111"/>
<path d="M60.4352 3.43481V9.82748H65.8501V14.0256H60.4352V23.8532C60.4352 26.6201 61.2087 27.9559 63.336 27.9559C64.303 27.9559 65.0766 27.8605 65.5601 27.6697L65.6567 31.9633C64.7865 32.2495 63.336 32.5357 61.4988 32.5357C59.3715 32.5357 57.631 31.8678 56.5673 30.7229C55.3103 29.4825 54.8268 27.3834 54.8268 24.4256V13.9302H51.6358V9.73206H54.8268V4.77059L60.4352 3.43481Z" fill="#111111"/>
<path d="M76.2933 3.53026C76.2933 5.24769 75.0363 6.58347 73.0057 6.58347C71.0717 6.58347 69.9114 5.24769 69.9114 3.53026C69.9114 1.81283 71.1684 0.477051 73.1023 0.477051C75.0363 0.477051 76.2933 1.81283 76.2933 3.53026ZM70.2015 32.0587V9.82751H75.9065V32.1541H70.2015V32.0587Z" fill="#111111"/>
<path d="M88.3804 33.1083C86.5432 33.1083 84.996 32.1541 84.1258 30.6275C83.0621 28.6239 83.3522 26.0477 85.2861 23.0899C86.3498 21.3725 87.8002 19.655 89.5407 18.1284C91.8615 16.0294 94.1822 14.4073 96.3095 13.2624C96.3095 12.1174 96.3095 11.0679 96.2128 9.92294C94.4723 12.5945 92.3449 14.1211 89.8308 14.5028C89.4441 14.5982 89.154 14.5982 88.7672 14.5982C87.4134 14.5982 86.0597 14.1211 84.996 13.2624C83.6423 12.1174 82.772 10.4954 82.772 8.68257C82.6753 5.53395 84.8993 2.1945 88.0903 0.763303C88.9606 0.190826 90.1209 0 91.1846 0C93.1185 0 94.859 0.763303 96.0194 2.09908C96.4062 2.48073 96.4062 3.05321 96.3095 3.53028C96.5996 3.24404 96.9864 3.05321 97.3731 3.05321C97.4698 3.05321 97.5665 3.05321 97.5665 3.05321C98.2434 3.14862 98.7269 3.7211 98.8236 4.38899C99.017 6.86972 99.2104 9.44587 99.2104 11.9266C100.854 11.3541 102.401 11.0679 103.948 10.9725C105.109 9.6367 106.559 8.30092 108.203 7.25138C109.944 6.10642 111.974 4.96147 114.488 4.00734L113.715 3.81651C113.328 3.7211 113.038 3.43486 112.845 3.05321C112.651 2.67156 112.651 2.28991 112.748 1.90826C112.941 1.33578 113.521 0.954128 114.102 0.954128C114.295 0.954128 114.392 0.954128 114.585 1.04954L118.936 2.48073C119.323 2.57615 119.71 2.9578 119.807 3.33945C119.903 3.7211 119.903 4.19817 119.71 4.57982L117.293 8.87339C117.002 9.35046 116.519 9.6367 116.036 9.6367C115.745 9.6367 115.552 9.54128 115.359 9.44587C114.682 9.06422 114.392 8.2055 114.778 7.4422L115.165 6.77431C113.038 7.63303 111.297 8.58716 109.847 9.54128C109.073 10.1138 108.3 10.6862 107.623 11.3541C107.816 11.3541 107.913 11.4495 108.106 11.4495C111.781 12.5945 114.005 16.2202 113.231 20.0367C112.748 22.6128 110.814 24.8073 108.397 25.5706C107.816 25.7615 107.236 25.8569 106.656 25.8569C105.109 25.8569 103.658 25.2844 102.498 24.1394C100.467 22.1358 99.9839 18.9872 101.338 15.6477C101.531 15.1706 101.724 14.6936 102.015 14.2165C101.144 14.4073 100.274 14.6936 99.4038 15.0752C99.4038 15.6477 99.4038 16.3156 99.3071 16.8881C99.1137 20.8 98.05 24.4257 96.3095 27.3835C95.4392 28.9101 93.4086 31.5817 90.7011 32.7266C89.8308 32.9174 89.154 33.1083 88.3804 33.1083ZM96.2128 16.6018C94.6656 17.556 93.1185 18.7963 91.4747 20.2275C90.0242 21.5633 88.6705 22.9945 87.8002 24.5211C86.5432 26.5248 86.1564 28.1468 86.7366 29.1963C87.1233 29.8642 87.7035 30.1505 88.4771 30.1505C88.7672 30.1505 89.154 30.055 89.4441 29.9596C91.378 29.1009 92.9251 27.0018 93.6987 25.7615C95.2458 23.1853 96.1161 20.0367 96.3095 16.6018C96.2128 16.6972 96.2128 16.6018 96.2128 16.6018ZM105.302 13.9303C104.722 14.789 104.239 15.7431 103.852 16.6018C102.788 19.2734 103.465 21.1817 104.335 22.0404C104.915 22.6128 105.689 22.9945 106.463 22.9945C106.753 22.9945 107.043 22.9945 107.333 22.8991C108.783 22.422 109.944 21.1817 110.234 19.655C110.717 17.2697 109.363 15.0752 107.139 14.4073C106.559 14.1211 105.979 14.0257 105.302 13.9303ZM91.1846 2.86239C90.5077 2.86239 89.8308 2.9578 89.2507 3.24404C87.1233 4.19817 85.5762 6.48807 85.6729 8.49174C85.6729 9.44587 86.1564 10.3046 86.8333 10.9725C87.4134 11.4495 87.9936 11.6404 88.7672 11.6404C88.9606 11.6404 89.154 11.6404 89.3474 11.545C92.5383 10.9725 94.3756 7.63303 95.9227 4.00734L95.826 4.10275C95.5359 4.29358 95.2458 4.4844 94.859 4.4844C94.3756 4.4844 93.9888 4.29358 93.6987 4.00734C93.0218 3.05321 91.7648 2.86239 91.1846 2.86239Z" fill="#FF3C48"/>
<path d="M116.809 8.0147C116.712 8.0147 116.616 8.01471 116.616 7.91929C116.422 7.82388 116.326 7.53764 116.422 7.2514L117.969 4.57984C118.066 4.48443 118.066 4.2936 117.969 4.19819C117.873 4.10278 117.776 3.91195 117.679 3.91195L114.682 2.95782C114.392 2.86241 114.295 2.57617 114.392 2.38535C114.488 2.19452 114.778 2.0037 114.972 2.09911L117.969 3.05324C118.356 3.14865 118.743 3.5303 118.84 3.91195C118.936 4.2936 118.936 4.77067 118.743 5.15232L117.196 7.82388C117.099 7.91929 116.906 8.0147 116.809 8.0147Z" fill="white"/>
<path d="M2.99759 44.8439C4.25464 44.3669 5.415 44.0806 6.57535 43.699C7.73571 43.3173 8.89606 43.0311 10.1531 42.7448C11.3135 42.4586 12.4738 42.1724 13.7309 41.8861C14.8912 41.5999 16.0516 41.3136 17.3086 41.1228C19.726 40.6458 22.0467 40.1687 24.4642 39.787L28.0419 39.2146C29.2023 39.0237 30.4593 38.9283 31.6197 38.7375C41.1926 37.5925 50.7655 37.0201 60.3385 37.1155C62.7559 37.1155 65.0766 37.3063 67.494 37.3063L71.0717 37.4017C72.2321 37.4971 73.4891 37.5925 74.6495 37.688L81.805 38.2604C84.1257 38.5467 86.5431 38.9283 88.8638 39.2146L92.4416 39.6916C93.602 39.787 94.7623 40.0733 95.9227 40.2641L102.981 41.5999L104.722 41.8861L106.463 42.2678L109.944 43.1265L116.906 44.7485L109.847 43.5081L106.366 42.9357L104.625 42.6494L102.885 42.4586L95.826 41.5999C94.6656 41.5045 93.5053 41.3136 92.3449 41.2182L88.7671 40.932C86.4464 40.7412 84.029 40.5503 81.7083 40.4549L74.6495 40.2641C73.4891 40.2641 72.3288 40.1687 71.0717 40.1687L67.494 40.2641C65.1733 40.3595 62.7559 40.3595 60.4351 40.4549C51.0556 40.932 41.6761 42.0769 32.4899 43.8898C31.3296 44.0806 30.1692 44.2714 29.0089 44.5577L25.6245 45.321C23.3038 45.798 21.0798 46.4659 18.8558 47.0384C17.6954 47.3247 16.6318 47.7063 15.4714 47.9925C14.3111 48.2788 13.2474 48.6604 12.1837 49.0421C11.1201 49.4237 9.95972 49.8054 8.89606 50.187C7.8324 50.5687 6.76875 50.9503 5.80178 51.4274H5.70509C3.77116 52.1907 1.54715 51.332 0.773581 49.5192C1.09194e-05 47.6109 0.870277 45.4164 2.70751 44.6531C2.8042 44.9393 2.9009 44.8439 2.99759 44.8439Z" fill="#111111"/>
</svg>
