<svg width="22" height="22" viewBox="0 0 22 22" fill="none" xmlns="http://www.w3.org/2000/svg">
<path d="M11.3087 2.7917L18.8087 5.79168C19.1003 5.90835 19.3337 6.25834 19.3337 6.56667V9.33335C19.3337 9.79168 18.9587 10.1667 18.5003 10.1667H3.50033C3.04199 10.1667 2.66699 9.79168 2.66699 9.33335V6.56667C2.66699 6.25834 2.90033 5.90835 3.192 5.79168L10.692 2.7917C10.8587 2.72503 11.142 2.72503 11.3087 2.7917Z" stroke="#FF3C48" stroke-width="1.2" stroke-miterlimit="10" stroke-linecap="round" stroke-linejoin="round"/>
<path d="M19.3337 19.3333H2.66699V16.8333C2.66699 16.375 3.04199 16 3.50033 16H18.5003C18.9587 16 19.3337 16.375 19.3337 16.8333V19.3333Z" stroke="#FF3C48" stroke-width="1.2" stroke-miterlimit="10" stroke-linecap="round" stroke-linejoin="round"/>
<path d="M4.33301 16V10.1666" stroke="#FF3C48" stroke-width="1.2" stroke-miterlimit="10" stroke-linecap="round" stroke-linejoin="round"/>
<path d="M7.66699 16V10.1666" stroke="#FF3C48" stroke-width="1.2" stroke-miterlimit="10" stroke-linecap="round" stroke-linejoin="round"/>
<path d="M11 16V10.1667" stroke="#FF3C48" stroke-width="1.2" stroke-miterlimit="10" stroke-linecap="round" stroke-linejoin="round"/>
<path d="M14.333 16V10.1666" stroke="#FF3C48" stroke-width="1.2" stroke-miterlimit="10" stroke-linecap="round" stroke-linejoin="round"/>
<path d="M17.667 16V10.1666" stroke="#FF3C48" stroke-width="1.2" stroke-miterlimit="10" stroke-linecap="round" stroke-linejoin="round"/>
<path d="M1.83301 19.3334H20.1663" stroke="#FF3C48" stroke-width="1.2" stroke-miterlimit="10" stroke-linecap="round" stroke-linejoin="round"/>
<path d="M11 8.08334C11.6904 8.08334 12.25 7.5237 12.25 6.83334C12.25 6.14299 11.6904 5.58334 11 5.58334C10.3096 5.58334 9.75 6.14299 9.75 6.83334C9.75 7.5237 10.3096 8.08334 11 8.08334Z" stroke="#FF3C48" stroke-width="1.2" stroke-miterlimit="10" stroke-linecap="round" stroke-linejoin="round"/>
</svg>
