<svg width="20" height="20" viewBox="0 0 20 20" fill="none" xmlns="http://www.w3.org/2000/svg"><path d="M6.532 3.237V13.883C5.913 13.33 5.096 12.994 4.203 12.994C2.271 12.994 0.7 14.565 0.7 16.497C0.7 18.428 2.271 20 4.203 20C6.132 20 7.702 18.432 7.706 16.504H7.706V7.948L18.126 5.307V11.057C17.507 10.504 16.691 10.168 15.797 10.168C13.865 10.168 12.294 11.739 12.294 13.671C12.294 15.602 13.865 17.174 15.797 17.174C17.729 17.174 19.3 15.602 19.3 13.671V0L6.532 3.237ZM4.203 18.826C2.919 18.826 1.874 17.781 1.874 16.497C1.874 15.212 2.919 14.167 4.203 14.167C5.487 14.167 6.532 15.212 6.532 16.497C6.532 17.781 5.487 18.826 4.203 18.826ZM7.706 6.737V4.15L18.126 1.509V4.096L7.706 6.737ZM15.797 16C14.512 16 13.468 14.955 13.468 13.671C13.468 12.386 14.512 11.341 15.797 11.341C17.081 11.341 18.126 12.386 18.126 13.671C18.126 14.955 17.081 16 15.797 16Z" fill="#FF3C48"/></svg>