<svg xmlns="http://www.w3.org/2000/svg" width="180" height="160" viewBox="0 0 180 160" fill="none"><path d="M145.452 170.235C152.324 172.509 159.098 168.059 164.29 164.005C169.926 159.654 175.217 154.907 180.111 149.716C182.584 147.095 184.957 144.326 187.231 141.508C189.258 138.937 191.236 136.317 193.412 133.844C195.488 131.422 197.812 129.048 200.433 127.219C202.608 125.686 206.366 123.313 208.64 126.032C210.618 128.455 209.58 131.669 207.948 133.943C206.267 136.317 203.943 138.344 201.718 140.223C197.367 143.931 192.621 147.145 188.418 151.001C186.341 152.88 184.413 154.957 182.831 157.231C182.04 158.368 181.298 159.555 180.705 160.791C180.111 161.978 179.518 163.263 179.271 164.598C178.875 166.922 179.518 170.531 182.633 170.235C183.523 170.136 184.364 169.74 185.155 169.394C185.847 169.098 186.539 168.751 187.231 168.405C188.616 167.713 190 166.971 191.385 166.18C202.015 160.148 212.151 151.743 224.512 149.666C225.995 149.419 227.478 149.271 229.011 149.271C230.297 149.221 230.346 147.194 229.011 147.244C216.304 147.54 205.624 155.204 195.142 161.632C192.472 163.263 189.753 164.845 186.984 166.279C186.292 166.625 185.6 166.972 184.907 167.318C184.215 167.664 183.424 168.158 182.633 168.257C181.545 168.405 181.249 167.318 181.199 166.428C181.15 165.142 181.545 164.005 182.04 162.868C182.534 161.632 183.226 160.445 183.919 159.308C185.402 156.984 187.231 154.957 189.258 153.078C193.412 149.122 198.208 145.859 202.608 142.2C204.833 140.321 207.058 138.393 208.937 136.119C210.915 133.696 212.398 130.68 211.607 127.516C210.865 124.5 208.245 122.472 205.08 122.917C203.399 123.165 201.817 124.005 200.383 124.944C198.999 125.834 197.713 126.823 196.477 127.911C191.434 132.361 187.726 138.096 183.375 143.189C178.776 148.628 173.733 153.671 168.344 158.269C165.674 160.544 162.955 162.818 160.037 164.747C157.269 166.625 154.154 168.356 150.791 168.801C149.16 169.048 147.528 168.85 145.995 168.356C144.71 167.861 144.215 169.839 145.452 170.235Z" fill="white"></path><path d="M9.58096 170.235C16.4536 172.509 23.2274 168.059 28.4189 164.005C34.0555 159.654 39.346 154.907 44.2409 149.716C46.713 147.095 49.0863 144.326 51.3607 141.508C53.3879 138.937 55.3657 136.317 57.5412 133.844C59.6178 131.422 61.9417 129.048 64.5622 127.219C66.7377 125.686 70.4954 123.313 72.7698 126.032C74.7475 128.455 73.7092 131.669 72.0776 133.943C70.3965 136.317 68.0727 138.344 65.8477 140.223C61.4967 143.931 56.7501 147.145 52.5474 151.001C50.4708 152.88 48.5425 154.957 46.9603 157.231C46.1692 158.368 45.4275 159.555 44.8342 160.791C44.2409 161.978 43.6475 163.263 43.4003 164.598C43.0048 166.922 43.6475 170.531 46.7625 170.235C47.6525 170.136 48.493 169.74 49.2841 169.394C49.9763 169.098 50.6685 168.751 51.3607 168.405C52.7452 167.713 54.1296 166.971 55.514 166.18C66.1444 160.148 76.2803 151.743 88.6412 149.666C90.1245 149.419 91.6078 149.271 93.1405 149.271C94.426 149.221 94.4755 147.194 93.1405 147.244C80.4335 147.54 69.7537 155.204 59.2717 161.632C56.6018 163.263 53.8824 164.845 51.1135 166.279C50.4213 166.625 49.7291 166.972 49.0369 167.318C48.3447 167.664 47.5536 168.158 46.7625 168.257C45.6747 168.405 45.3781 167.318 45.3286 166.428C45.2792 165.142 45.6747 164.005 46.1692 162.868C46.6636 161.632 47.3558 160.445 48.048 159.308C49.5313 156.984 51.3607 154.957 53.3879 153.078C57.5412 149.122 62.3372 145.859 66.7377 142.2C68.9626 140.321 71.1876 138.393 73.0664 136.119C75.0442 133.696 76.5275 130.68 75.7364 127.516C74.9947 124.5 72.3742 122.472 69.2099 122.917C67.5288 123.165 65.9466 124.005 64.5127 124.944C63.1283 125.834 61.8428 126.823 60.6067 127.911C55.5634 132.361 51.8552 138.096 47.5041 143.189C42.9059 148.628 37.8627 153.671 32.4733 158.269C29.8034 160.544 27.084 162.818 24.1668 164.747C21.398 166.625 18.283 168.356 14.9209 168.801C13.2892 169.048 11.6576 168.85 10.1248 168.356C8.88875 167.861 8.34487 169.839 9.58096 170.235Z" fill="white"></path><path d="M73.709 145.958C81.9167 142.299 90.4209 139.432 99.123 137.256C101.249 136.712 103.425 136.267 105.6 135.822C107.528 135.427 109.457 135.08 111.434 135.031C113.264 134.982 115.093 135.278 116.675 136.267C117.368 136.712 118.06 137.355 118.357 138.146C118.752 139.085 118.357 139.975 117.862 140.766C114.253 146.947 106.836 149.518 100.458 151.842C92.6459 154.66 84.8833 157.676 77.4173 161.335C70.0008 164.994 62.8809 169.246 56.4532 174.487C55.6621 175.13 54.871 175.773 54.1294 176.465C53.1405 177.355 54.5744 178.789 55.5633 177.899C61.9909 172.213 69.3086 167.664 76.9723 163.807C84.6855 159.901 92.7942 156.737 100.952 153.82C107.776 151.347 115.39 148.628 119.444 142.151C120.581 140.322 121.076 138.294 119.741 136.465C118.604 134.833 116.774 133.844 114.895 133.35C110.891 132.411 106.54 133.498 102.584 134.388C93.437 136.366 84.5372 139.184 75.8845 142.843C74.8462 143.288 73.7585 143.733 72.7202 144.228C72.2257 144.475 72.1268 145.167 72.3741 145.612C72.6213 146.106 73.2146 146.156 73.709 145.958Z" fill="white"></path><path d="M171.311 141.36C168.196 146.008 164.389 150.161 160.038 153.671C157.813 155.451 155.489 157.132 152.967 158.517C150.594 159.802 147.924 160.742 145.205 160.544C142.93 160.396 140.557 159.407 139.222 157.478C137.739 155.352 137.689 152.583 138.184 150.111C139.073 145.464 141.546 141.162 144.908 137.849C148.715 134.092 153.61 131.619 158.9 130.878C159.444 130.828 159.741 130.087 159.593 129.642C159.444 129.048 158.9 128.851 158.356 128.949C148.072 130.334 139.024 138.393 136.453 148.43C135.761 151.199 135.514 154.314 136.651 157.033C137.689 159.604 139.865 161.335 142.485 162.176C148.418 164.005 154.253 160.593 158.9 157.182C164.438 153.127 169.234 148.134 173.041 142.448C173.832 141.31 172.052 140.272 171.311 141.36Z" fill="white"></path><path d="M165.724 135.773C163.795 139.036 161.57 142.101 158.999 144.87C156.527 147.59 153.808 150.26 150.792 152.336C149.556 153.226 147.578 154.363 146.243 152.93C145.056 151.644 145.402 149.716 145.946 148.232C147.083 145.167 149.16 142.398 151.533 140.124C154.203 137.553 157.467 135.624 161.026 134.487C162.263 134.092 161.719 132.114 160.483 132.509C153.313 134.734 147.133 140.124 144.216 147.095C143.425 149.024 143.029 151.15 143.919 153.078C144.809 154.957 146.737 155.847 148.715 155.501C150.792 155.105 152.522 153.572 154.104 152.237C155.736 150.902 157.318 149.469 158.802 147.936C162.114 144.574 164.982 140.767 167.405 136.712C168.146 135.674 166.416 134.635 165.724 135.773Z" fill="white"></path><path d="M144.364 128.702C135.316 134.932 130.52 145.068 126.07 154.71C123.647 159.951 121.175 165.192 118.159 170.136C114.846 175.575 111.039 180.667 106.985 185.612C102.436 191.199 97.541 196.489 92.6956 201.829C91.8056 202.818 93.2394 204.252 94.1294 203.263C102.733 193.819 111.385 184.326 118.357 173.597C121.571 168.653 124.241 163.51 126.713 158.171C128.987 153.276 131.163 148.331 133.882 143.684C136.849 138.591 140.507 133.844 145.402 130.433C146.441 129.741 145.452 127.961 144.364 128.702Z" fill="white"></path><path d="M55.9098 184.623C65.9962 177.404 76.8244 171.125 88.0975 166.032C98.7773 161.236 110.891 157.923 119.197 149.172C123.301 144.87 126.218 139.431 126.565 133.449C126.663 132.163 124.587 132.163 124.537 133.449C124.241 138.541 121.769 143.288 118.406 147.046C114.698 151.199 110.001 154.116 105.057 156.539C99.6178 159.159 93.9318 161.236 88.4436 163.659C82.9059 166.082 77.5166 168.801 72.2261 171.768C66.2434 175.13 60.4586 178.838 54.8714 182.843C54.4264 183.189 54.2287 183.733 54.5253 184.227C54.7725 184.722 55.4648 184.969 55.9098 184.623Z" fill="white"></path><path d="M39.9885 146.65C42.609 144.821 44.5373 142.101 46.5645 139.679C48.8389 137.009 51.0638 134.388 53.3382 131.718C54.1788 130.729 52.7449 129.296 51.9044 130.284C49.7289 132.856 47.5039 135.476 45.3284 138.047C44.2901 139.283 43.2518 140.519 42.164 141.755C41.1751 142.893 40.1863 144.03 38.9996 144.87C37.8624 145.661 38.9007 147.392 39.9885 146.65Z" fill="white"></path><path d="M35.4889 141.36C32.3739 146.008 28.5668 150.161 24.2158 153.671C21.9908 155.451 19.667 157.132 17.1453 158.517C14.7721 159.802 12.1021 160.742 9.38271 160.544C7.10831 160.396 4.73502 159.407 3.40004 157.478C1.91674 155.352 1.86729 152.583 2.36173 150.111C3.25171 145.464 5.72389 141.162 9.08605 137.849C12.8932 134.092 17.7881 131.619 23.0786 130.878C23.6224 130.828 23.9191 130.087 23.7708 129.642C23.6224 129.048 23.0786 128.851 22.5347 128.949C12.2504 130.334 3.20227 138.393 0.631204 148.43C-0.0610052 151.199 -0.308222 154.314 0.828979 157.033C1.86729 159.604 4.04281 161.335 6.66332 162.176C12.5965 164.005 18.4309 160.593 23.0786 157.182C28.6162 153.127 33.4123 148.134 37.2194 142.448C38.0105 141.31 36.2305 140.272 35.4889 141.36Z" fill="white"></path><path d="M29.9017 135.773C27.9734 139.036 25.7485 142.101 23.1774 144.87C20.7052 147.59 17.9858 150.26 14.9698 152.336C13.7337 153.226 11.756 154.363 10.421 152.93C9.23433 151.644 9.58044 149.716 10.1243 148.232C11.2615 145.167 13.3381 142.398 15.7114 140.124C18.3814 137.553 21.6447 135.624 25.2046 134.487C26.4407 134.092 25.8968 132.114 24.6607 132.509C17.4914 134.734 11.311 140.124 8.39379 147.095C7.6027 149.024 7.20715 151.15 8.09713 153.078C8.98711 154.957 10.9154 155.847 12.8932 155.501C14.9698 155.105 16.7003 153.572 18.2825 152.237C19.9141 150.902 21.4963 149.469 22.9796 147.936C26.2923 144.574 29.1601 140.767 31.5828 136.712C32.3245 135.674 30.5445 134.635 29.9017 135.773Z" fill="white"></path><path d="M145.451 34.4131C152.323 36.6875 159.097 32.2376 164.289 28.1833C169.925 23.8322 175.216 19.0856 180.111 13.8941C182.583 11.2736 184.956 8.50473 187.231 5.68645C189.258 3.11539 191.236 0.494882 193.411 -1.97729C195.488 -4.40003 197.812 -6.77331 200.432 -8.60273C202.608 -10.1355 206.365 -12.5088 208.64 -9.78937C210.617 -7.36664 209.579 -4.15281 207.947 -1.87841C206.266 0.494884 203.943 2.52207 201.718 4.40092C197.367 8.10918 192.62 11.323 188.417 15.1796C186.341 17.0585 184.412 19.1351 182.83 21.4095C182.039 22.5467 181.297 23.7333 180.704 24.9694C180.111 26.1561 179.517 27.4416 179.27 28.7766C178.875 31.1004 179.517 34.7098 182.632 34.4131C183.522 34.3143 184.363 33.9187 185.154 33.5726C185.846 33.2759 186.538 32.9298 187.231 32.5837C188.615 31.8915 189.999 31.1499 191.384 30.3588C202.014 24.3267 212.15 15.9213 224.511 13.8446C225.994 13.5974 227.478 13.4491 229.01 13.4491C230.296 13.3996 230.345 11.3725 229.01 11.4219C216.303 11.7186 205.624 19.3823 195.142 25.81C192.472 27.4416 189.752 29.0238 186.983 30.4577C186.291 30.8038 185.599 31.1499 184.907 31.496C184.215 31.8421 183.423 32.3365 182.632 32.4354C181.545 32.5837 181.248 31.496 181.198 30.606C181.149 29.3205 181.545 28.1833 182.039 27.0461C182.533 25.81 183.226 24.6233 183.918 23.4861C185.401 21.1623 187.231 19.1351 189.258 17.2562C193.411 13.3008 198.207 10.0375 202.608 6.37866C204.832 4.49981 207.057 2.57151 208.936 0.297111C210.914 -2.12562 212.397 -5.14168 211.606 -8.30606C210.865 -11.3221 208.244 -13.3493 205.08 -12.9043C203.399 -12.6571 201.816 -11.8166 200.383 -10.8771C198.998 -9.98715 197.713 -8.99828 196.477 -7.91052C191.433 -3.4606 187.725 2.27485 183.374 7.36753C178.776 12.8063 173.733 17.8496 168.343 22.4478C165.673 24.7222 162.954 26.9966 160.037 28.9249C157.268 30.8038 154.153 32.5343 150.791 32.9793C149.159 33.2265 147.527 33.0287 145.995 32.5343C144.709 32.0399 144.215 33.9682 145.451 34.4131Z" fill="white"></path><path d="M142.237 125.686C150.593 117.182 159.444 109.172 168.689 101.607C170.717 99.9258 172.843 97.9975 175.414 97.2064C177.243 96.6625 179.616 96.9097 180.803 98.5908C181.594 99.6785 181.545 101.112 181.495 102.349C181.396 103.634 181.199 104.92 180.853 106.205C180.16 108.826 179.023 111.298 177.639 113.622C174.326 119.06 169.53 123.411 164.833 127.664C163.844 128.554 165.327 129.987 166.267 129.097C170.766 125.043 175.265 120.89 178.628 115.847C180.21 113.424 181.545 110.853 182.435 108.084C183.275 105.414 183.968 102.2 183.325 99.3819C182.731 96.8603 180.556 95.3275 178.084 94.9814C175.364 94.6353 172.843 95.822 170.717 97.3547C168.244 99.1347 165.921 101.162 163.547 103.14C161.125 105.167 158.702 107.243 156.329 109.369C150.989 114.116 145.797 119.06 140.754 124.153C139.864 125.191 141.298 126.625 142.237 125.686Z" fill="white"></path><path d="M151.137 126.527C155.538 122.373 159.889 118.22 164.289 114.116C165.278 113.226 166.267 112.287 167.305 111.496C168.146 110.853 169.332 109.765 170.42 109.765C171.508 109.765 170.816 111.199 170.519 111.693C169.827 112.88 168.788 113.869 167.898 114.858C165.673 117.429 163.449 120 161.224 122.62C160.383 123.609 161.817 125.043 162.657 124.054C164.882 121.434 167.157 118.813 169.382 116.193C170.865 114.462 174.227 111.545 172.694 108.974C171.953 107.738 170.42 107.54 169.184 107.985C167.8 108.48 166.613 109.468 165.476 110.408C162.905 112.485 160.63 114.858 158.207 117.083C155.34 119.753 152.521 122.472 149.654 125.142C148.764 125.983 150.198 127.416 151.137 126.527Z" fill="white"></path><path d="M172.991 25.9088C166.267 31.9409 158.554 36.7864 151.434 42.3735C145.056 47.3673 138.974 53.1522 135.068 60.3215C133.337 63.4365 131.706 67.0458 132.052 70.7047C132.2 72.2869 132.744 73.869 133.881 75.0062C135.315 76.3907 137.293 76.8357 139.221 76.6873C143.325 76.3412 147.379 74.5613 150.939 72.5835C154.549 70.5563 157.911 68.0347 161.075 65.3648C164.487 62.5465 167.75 59.5304 171.013 56.5638C174.623 53.3005 178.282 50.0373 181.891 46.7246C182.781 45.9335 183.671 45.0929 184.61 44.3018C185.599 43.4118 184.165 41.978 183.177 42.868C176.403 48.9989 169.629 55.1794 162.806 61.261C156.922 66.4525 150.593 71.5452 142.979 73.869C141.199 74.4129 139.172 75.0063 137.342 74.6107C135.859 74.2646 134.771 73.2757 134.326 71.7924C133.436 68.6775 134.87 65.2659 136.255 62.5465C139.765 55.5749 145.402 49.9384 151.384 45.0929C158.109 39.6541 165.426 35.0559 172.052 29.5182C172.892 28.826 173.683 28.1338 174.474 27.3921C175.414 26.4527 173.98 25.0188 172.991 25.9088Z" fill="white"></path><path d="M172.101 34.8581C163.102 41.3847 154.005 47.9607 146.489 56.2177C145.599 57.2066 144.709 58.2449 143.869 59.2832C143.028 60.371 142.188 61.5082 142.039 62.8926C141.891 63.9804 142.237 65.1176 142.979 65.9087C143.918 66.8975 145.303 66.9964 146.489 66.5514C149.011 65.612 151.384 64.0298 153.56 62.4971C155.834 60.9149 158.01 59.1843 160.086 57.3549C165.031 53.0533 169.678 48.4057 174.425 43.8568C175.364 42.9669 173.93 41.533 172.991 42.423C169.035 46.2301 165.08 50.0373 161.026 53.7456C157.268 57.1572 153.362 60.4204 148.912 62.9915C147.874 63.5848 146.736 64.3265 145.599 64.6726C144.66 64.9198 144.067 64.3759 144.017 63.387C143.968 62.2993 144.808 61.3104 145.451 60.5193C146.242 59.5305 147.083 58.5416 147.973 57.6022C151.434 53.795 155.241 50.2845 159.246 47.0212C163.745 43.3624 168.442 39.9508 173.139 36.5392C173.584 36.1931 173.782 35.6492 173.485 35.1548C173.238 34.8087 172.546 34.5615 172.101 34.8581Z" fill="white"></path><path d="M9.58073 34.4131C16.4534 36.6875 23.2271 32.2376 28.4187 28.1833C34.0553 23.8322 39.3457 19.0856 44.2406 13.8941C46.7128 11.2736 49.0861 8.50473 51.3605 5.68645C53.3877 3.11539 55.3654 0.494882 57.541 -1.97729C59.6176 -4.40003 61.9414 -6.77331 64.5619 -8.60273C66.7374 -10.1355 70.4952 -12.5088 72.7696 -9.78937C74.7473 -7.36664 73.709 -4.15281 72.0773 -1.87841C70.3963 0.494884 68.0724 2.52207 65.8475 4.40092C61.4964 8.10918 56.7499 11.323 52.5472 15.1796C50.4705 17.0585 48.5422 19.1351 46.96 21.4095C46.1689 22.5467 45.4273 23.7333 44.834 24.9694C44.2406 26.1561 43.6473 27.4416 43.4001 28.7766C43.0046 31.1004 43.6473 34.7098 46.7623 34.4131C47.6522 34.3143 48.4928 33.9187 49.2839 33.5726C49.9761 33.2759 50.6683 32.9298 51.3605 32.5837C52.7449 31.8915 54.1293 31.1499 55.5138 30.3588C66.1441 24.3267 76.2801 15.9213 88.6409 13.8446C90.1242 13.5974 91.6075 13.4491 93.1403 13.4491C94.4258 13.3996 94.4753 11.3725 93.1403 11.4219C80.4333 11.7186 69.7535 19.3823 59.2715 25.81C56.6015 27.4416 53.8821 29.0238 51.1133 30.4577C50.4211 30.8038 49.7289 31.1499 49.0367 31.496C48.3445 31.8421 47.5534 32.3365 46.7623 32.4354C45.6745 32.5837 45.3778 31.496 45.3284 30.606C45.279 29.3205 45.6745 28.1833 46.1689 27.0461C46.6634 25.81 47.3556 24.6233 48.0478 23.4861C49.5311 21.1623 51.3605 19.1351 53.3877 17.2562C57.5409 13.3008 62.337 10.0375 66.7374 6.37866C68.9624 4.49981 71.1874 2.57151 73.0662 0.297111C75.044 -2.12562 76.5273 -5.14168 75.7362 -8.30606C74.9945 -11.3221 72.374 -13.3493 69.2096 -12.9043C67.5285 -12.6571 65.9463 -11.8166 64.5125 -10.8771C63.1281 -9.98715 61.8425 -8.99828 60.6064 -7.91052C55.5632 -3.4606 51.8549 2.27485 47.5039 7.36753C42.9057 12.8063 37.8624 17.8496 32.4731 22.4478C29.8031 24.7222 27.0837 26.9966 24.1666 28.9249C21.3977 30.8038 18.2828 32.5343 14.9206 32.9793C13.289 33.2265 11.6574 33.0287 10.1246 32.5343C8.88852 32.0399 8.34464 33.9682 9.58073 34.4131Z" fill="white"></path><path d="M73.7088 10.1363C81.9164 6.4775 90.4207 3.60977 99.1228 1.43426C101.249 0.890379 103.424 0.445386 105.6 0.000394583C107.528 -0.395154 109.456 -0.741257 111.434 -0.790701C113.264 -0.840145 115.093 -0.543483 116.675 0.445387C117.367 0.890379 118.06 1.53315 118.356 2.32424C118.752 3.26367 118.356 4.15365 117.862 4.94475C114.252 11.1252 106.836 13.6963 100.458 16.0201C92.6457 18.8384 84.883 21.8544 77.4171 25.5133C70.0005 29.1721 62.8807 33.4242 56.453 38.6652C55.6619 39.308 54.8708 39.9508 54.1292 40.643C53.1403 41.533 54.5742 42.9668 55.563 42.0768C61.9907 36.3908 69.3083 31.842 76.9721 27.9854C84.6853 24.0794 92.794 20.915 100.952 17.9978C107.775 15.5257 115.39 12.8063 119.444 6.32917C120.581 4.49976 121.076 2.47257 119.741 0.643162C118.604 -0.988474 116.774 -1.97735 114.895 -2.47178C110.89 -3.41121 106.539 -2.32345 102.584 -1.43346C93.4368 0.544276 84.5369 3.36256 75.8843 7.02138C74.846 7.46637 73.7582 7.91136 72.7199 8.40579C72.2255 8.65301 72.1266 9.34522 72.3738 9.79021C72.621 10.2846 73.2144 10.3341 73.7088 10.1363Z" fill="white"></path><path d="M171.31 5.53818C168.195 10.1859 164.388 14.3391 160.037 17.8496C157.812 19.6296 155.488 21.3107 152.966 22.6951C150.593 23.9806 147.923 24.92 145.204 24.7223C142.929 24.5739 140.556 23.5851 139.221 21.6568C137.738 19.5307 137.688 16.7619 138.183 14.2897C139.073 9.64199 141.545 5.34041 144.907 2.02769C148.714 -1.73001 153.609 -4.20219 158.9 -4.94385C159.443 -4.99329 159.74 -5.73494 159.592 -6.17993C159.444 -6.77326 158.9 -6.97103 158.356 -6.87214C148.071 -5.48772 139.023 2.57157 136.452 12.6086C135.76 15.3774 135.513 18.4924 136.65 21.2118C137.688 23.7828 139.864 25.5134 142.484 26.3539C148.418 28.1833 154.252 24.7717 158.9 21.3601C164.437 17.3057 169.233 12.3119 173.04 6.62594C173.832 5.43929 172.052 4.45043 171.31 5.53818Z" fill="white"></path><path d="M165.723 -0.0984747C163.795 3.1648 161.57 6.2303 158.999 8.99914C156.526 11.7185 153.807 14.3885 150.791 16.4651C149.555 17.3551 147.577 18.4923 146.242 17.0584C145.056 15.7729 145.402 13.8446 145.945 12.3613C147.083 9.29579 149.159 6.52696 151.533 4.25256C154.203 1.68149 157.466 -0.246804 161.026 -1.38401C162.262 -1.77955 161.718 -3.75729 160.482 -3.36175C153.313 -1.13679 147.132 4.25256 144.215 11.2241C143.424 13.1524 143.028 15.2785 143.918 17.2068C144.808 19.0856 146.737 19.9756 148.714 19.6295C150.791 19.2339 152.521 17.7012 154.104 16.3662C155.735 15.0312 157.317 13.5974 158.801 12.0646C162.114 8.70247 164.981 4.89532 167.404 0.840953C168.146 -0.197361 166.415 -1.18623 165.723 -0.0984747Z" fill="white"></path><path d="M144.363 -7.11944C135.315 -0.88956 130.519 9.24636 126.069 18.8878C123.646 24.1289 121.174 29.3699 118.158 34.3142C114.846 39.753 111.038 44.8457 106.984 49.79C102.435 55.3772 97.5403 60.6676 92.6948 66.0075C91.8049 66.9964 93.2387 68.4303 94.1287 67.4414C102.732 57.9977 111.384 48.5045 118.356 37.7753C121.57 32.8309 124.24 27.6888 126.712 22.3489C128.986 17.454 131.162 12.5096 133.881 7.86194C136.848 2.76926 140.507 -1.97732 145.402 -5.38892C146.44 -6.13057 145.451 -7.8611 144.363 -7.11944Z" fill="white"></path><path d="M131.558 19.8273C128.393 27.1944 124.635 34.3142 120.235 41.0386C115.834 47.7629 110.841 54.1411 105.352 60.0249C102.238 63.3376 99.0237 66.4525 95.6121 69.4686C94.6232 70.3586 96.0571 71.7924 97.0459 70.9025C103.128 65.5626 108.764 59.6788 113.807 53.35C118.9 47.0212 123.399 40.2475 127.305 33.177C129.481 29.1721 131.508 25.0683 133.288 20.8656C133.486 20.3712 133.436 19.7778 132.942 19.4812C132.546 19.1845 131.805 19.2834 131.558 19.8273Z" fill="white"></path><path d="M55.909 48.8012C65.9955 41.5825 76.8236 35.3031 88.0968 30.2105C98.7766 25.4144 110.89 22.1017 119.197 13.3502C123.301 9.04863 126.218 3.60984 126.564 -2.37283C126.663 -3.65836 124.586 -3.65836 124.537 -2.37283C124.24 2.71986 121.768 7.46644 118.406 11.2241C114.697 15.3774 110 18.2946 105.056 20.7173C99.6171 23.3378 93.9311 25.4144 88.4429 27.8372C82.9052 30.2599 77.5159 32.9793 72.2254 35.9459C66.2427 39.3081 60.4578 43.0163 54.8707 47.0213C54.4257 47.3674 54.228 47.9112 54.5246 48.4057C54.7718 48.8507 55.464 49.0979 55.909 48.8012Z" fill="white"></path><path d="M165.97 92.4104C155.142 99.9258 145.006 108.727 137.54 119.654C129.629 131.273 126.168 145.117 118.999 157.083C115.39 163.115 110.791 168.652 104.71 172.311C103.573 173.003 104.611 174.734 105.748 174.091C117.17 167.218 123.103 154.808 128.146 143.041C130.964 136.415 133.684 129.74 137.491 123.56C140.903 117.973 145.105 112.88 149.802 108.282C155.093 103.041 160.927 98.4425 167.009 94.1904C168.047 93.4487 167.058 91.6687 165.97 92.4104Z" fill="white"></path><path d="M6.36638 125.686C14.7223 117.182 23.5727 109.172 32.8187 101.607C34.8458 99.9258 36.9719 97.9975 39.543 97.2064C41.3724 96.6625 43.7457 96.9097 44.9323 98.5908C45.7234 99.6785 45.674 101.112 45.6245 102.349C45.5257 103.634 45.3279 104.92 44.9818 106.205C44.2896 108.826 43.1524 111.298 41.7679 113.622C38.4552 119.06 33.6592 123.411 28.9621 127.664C27.9732 128.554 29.4565 129.987 30.3959 129.097C34.8953 125.043 39.3946 120.89 42.7568 115.847C44.339 113.424 45.674 110.853 46.564 108.084C47.4045 105.414 48.0967 102.2 47.4539 99.3819C46.8606 96.8603 44.6851 95.3275 42.2129 94.9814C39.4935 94.6353 36.9719 95.822 34.8458 97.3547C32.3737 99.1347 30.0498 101.162 27.6765 103.14C25.2538 105.167 22.8311 107.243 20.4578 109.369C15.1179 114.116 9.92631 119.06 4.88308 124.153C3.99309 125.191 5.4764 126.625 6.36638 125.686Z" fill="white"></path><path d="M15.3158 126.527C19.7163 122.373 24.0673 118.22 28.4678 114.116C29.4566 113.226 30.4455 112.287 31.4838 111.496C32.3244 110.853 33.511 109.765 34.5988 109.765C35.6865 109.765 34.9943 111.199 34.6977 111.693C34.0054 112.88 32.9671 113.869 32.0771 114.858C29.8522 117.429 27.6272 120 25.4023 122.62C24.5617 123.609 25.9956 125.043 26.8361 124.054C29.0611 121.434 31.3355 118.813 33.5605 116.193C35.0438 114.462 38.4059 111.545 36.8732 108.974C36.1315 107.738 34.5988 107.54 33.3627 107.985C31.9783 108.48 30.7916 109.468 29.6544 110.408C27.0833 112.485 24.8089 114.858 22.3862 117.083C19.5185 119.753 16.7002 122.472 13.8325 125.142C12.9425 125.983 14.3764 127.416 15.3158 126.527Z" fill="white"></path><path d="M101.694 27.5405C96.4035 30.3588 91.1131 33.1771 85.8226 35.9954C81.4716 38.3192 77.0711 40.5936 72.8684 43.1153C65.0069 47.8124 57.2937 53.449 52.2999 61.261C49.5311 65.5626 47.3061 70.7047 47.9983 75.8963C48.5917 80.2968 51.5583 84.5984 56.1071 85.4389C61.2986 86.4278 66.0947 83.1645 69.9018 80.099C74.154 76.6874 78.3072 73.078 82.3616 69.4687C90.6186 62.151 98.5791 54.4873 105.847 46.2302C106.737 45.1919 107.627 44.1536 108.517 43.1153C109.358 42.1264 107.924 40.6925 107.083 41.6814C100.26 49.7901 92.7447 57.3056 84.9326 64.4749C81.0266 68.0348 77.0217 71.4958 73.0168 74.9074C71.039 76.5885 69.1107 78.319 67.0341 79.8518C65.0563 81.2857 62.9303 82.6701 60.557 83.3128C58.3815 83.9062 56.1071 83.7578 54.1788 82.5712C52.4977 81.5329 51.2616 79.8024 50.6188 77.9235C48.9378 73.2264 50.7672 68.1337 53.1405 63.9804C57.4915 56.2672 64.6608 50.6307 72.0773 46.0324C75.9339 43.6591 79.8894 41.5331 83.8449 39.407C88.8881 36.6876 93.9314 34.0176 98.9746 31.2983C100.26 30.606 101.496 29.9633 102.782 29.2711C103.87 28.6777 102.831 26.8978 101.694 27.5405Z" fill="white"></path><path d="M95.9087 36.9842C89.3327 40.7419 82.9545 44.8457 76.9224 49.3945C73.9063 51.6689 70.9397 54.0422 68.0225 56.4649C65.2537 58.7887 62.4849 61.162 60.0621 63.832C58.9249 65.1175 57.8372 66.4525 56.9966 67.9852C56.1561 69.4685 55.4144 71.1991 55.365 72.9296C55.365 76.3906 59.0238 78.0223 61.9904 77.0334C63.6715 76.4895 65.0559 75.4018 66.3415 74.2646C67.8248 72.979 69.3575 71.6935 70.8408 70.408C73.8569 67.7875 76.8235 65.167 79.7407 62.4476C86.3167 56.4155 92.6949 50.235 98.9247 43.9062C99.8642 42.9668 98.3809 41.533 97.4909 42.4724C87.0089 53.1522 76.0818 63.5353 64.5615 73.1274C63.4243 74.0668 62.1388 75.1051 60.606 75.2534C59.5183 75.4018 58.1833 75.0557 57.6394 74.0668C56.8978 72.6824 57.7877 70.853 58.3811 69.6169C59.1227 68.183 60.0621 66.848 61.1499 65.6614C63.3749 63.1398 65.9459 60.9148 68.4675 58.7393C71.1375 56.4155 73.9063 54.1905 76.6752 52.0644C83.1028 47.1695 89.8271 42.7196 96.8481 38.7641C98.0842 38.0719 97.0459 36.3414 95.9087 36.9842Z" fill="white"></path><path d="M39.4443 130.482C44.7348 122.274 50.4208 114.363 56.5023 106.749C62.5839 99.1347 69.1104 91.8665 75.9336 84.8949C79.7902 80.9889 83.7457 77.1817 87.8001 73.5229C88.7889 72.6329 87.3056 71.1991 86.3662 72.0891C79.098 78.7145 72.1265 85.686 65.5505 93.0037C59.0239 100.272 52.8435 107.936 47.0586 115.847C43.7953 120.296 40.6804 124.845 37.6643 129.493C36.9721 130.531 38.7026 131.57 39.4443 130.482Z" fill="white"></path><path d="M43.7461 133.696C50.7671 126.922 56.7992 119.308 62.8313 111.693C68.814 104.079 74.7472 96.4153 81.5704 89.5426C85.3776 85.7355 89.432 82.1755 93.8324 79.0606C94.9202 78.3189 93.8819 76.539 92.7941 77.2806C84.8337 82.8677 78.0599 89.8393 71.8301 97.2064C65.5013 104.722 59.7164 112.583 53.4371 120.148C49.9266 124.351 46.2678 128.455 42.3123 132.262C41.3234 133.201 42.7573 134.635 43.7461 133.696Z" fill="white"></path><path d="M57.8867 127.812C61.8422 123.214 66.1438 118.517 71.7309 115.946C74.2525 114.759 77.4663 113.869 80.2352 114.413C81.6196 114.709 82.8557 115.451 83.449 116.786C83.9929 117.973 83.9434 119.357 83.7951 120.643C83.3007 124.351 81.5207 128.01 79.4935 131.125C78.7519 132.212 80.5318 133.251 81.2735 132.163C83.3501 129.048 84.9818 125.488 85.674 121.829C86.2673 118.714 85.9212 115.056 82.9051 113.276C80.0374 111.594 76.2303 112.188 73.2636 113.177C70.0004 114.215 67.1326 116.044 64.4627 118.22C61.4961 120.643 58.925 123.461 56.4034 126.378C55.6123 127.367 57.0462 128.801 57.8867 127.812Z" fill="white"></path><path d="M87.5032 133.3C94.3264 130.136 101.545 127.911 108.912 126.625C112.621 125.983 116.428 125.785 120.136 125.142C123.399 124.598 126.514 123.412 129.283 121.582C134.623 118.072 138.529 112.93 142.583 108.133C146.984 102.942 151.879 98.1954 157.219 93.9432C163.3 89.1472 169.926 85.0434 176.897 81.6812C178.084 81.1373 177.045 79.3574 175.859 79.9012C163.449 85.8345 152.175 94.2399 143.028 104.475C138.776 109.221 135.068 114.561 130.025 118.517C127.503 120.494 124.635 121.978 121.52 122.719C117.911 123.609 114.203 123.708 110.544 124.252C102.188 125.488 94.0792 127.96 86.4155 131.471C85.2783 132.114 86.3166 133.844 87.5032 133.3Z" fill="white"></path><path d="M138.43 105.266C142.435 96.9591 150.099 91.4215 157.664 86.6254C165.377 81.78 173.535 77.2806 179.765 70.408C182.781 67.0952 185.204 63.2881 186.588 59.036C187.231 57.0088 187.973 54.1905 185.748 52.905C183.869 51.7678 181.446 52.7566 179.716 53.6961C175.266 56.0199 171.508 59.4809 167.998 62.9914C164.289 66.6997 160.63 70.4574 156.774 74.0173C148.863 81.2855 140.408 88.0098 131.508 94.042C130.42 94.7836 129.333 95.5253 128.245 96.2175C127.157 96.9097 128.196 98.6896 129.283 97.9974C138.035 92.3114 146.341 85.9827 154.203 79.11C158.109 75.6984 161.916 72.089 165.575 68.3808C168.986 64.9197 172.299 61.3598 176.156 58.3932C177.936 57.0088 180.012 55.5255 182.138 54.7838C182.88 54.5366 183.819 54.2399 184.611 54.586C185.55 54.9816 185.303 56.2671 185.105 57.0088C184.116 61.1126 181.941 64.8703 179.221 68.0347C173.436 74.8084 165.624 79.3078 158.158 83.9555C150.692 88.6032 143.029 93.7453 138.331 101.31C137.738 102.25 137.244 103.238 136.749 104.227C136.106 105.414 137.837 106.452 138.43 105.266Z" fill="white"></path><path d="M91.1622 124.301C102.732 120.544 115.686 119.753 125.723 112.237C128.245 110.358 130.42 108.183 132.151 105.562C132.893 104.475 131.113 103.436 130.371 104.524C123.894 114.215 111.681 117.033 101.051 119.505C97.5404 120.346 94.0299 121.187 90.6183 122.274C89.3822 122.769 89.9261 124.697 91.1622 124.301Z" fill="white"></path><path d="M37.1699 25.9088C30.4455 31.9409 22.7323 36.7864 15.6125 42.3735C9.23426 47.3673 3.15271 53.1522 -0.75333 60.3215C-2.48385 63.4365 -4.11549 67.0458 -3.76938 70.7047C-3.62105 72.2869 -3.07718 73.869 -1.93998 75.0062C-0.506113 76.3907 1.47163 76.8357 3.39993 76.6873C7.50374 76.3412 11.5581 74.5613 15.118 72.5835C18.7274 70.5563 22.0896 68.0347 25.254 65.3648C28.6656 62.5465 31.9288 59.5304 35.1921 56.5638C38.8015 53.3005 42.4603 50.0373 46.0697 46.7246C46.9597 45.9335 47.8497 45.0929 48.7891 44.3018C49.778 43.4118 48.3441 41.978 47.3552 42.868C40.5815 48.9989 33.8077 55.1794 26.9845 61.261C21.1007 66.4525 14.7719 71.5452 7.15763 73.869C5.37767 74.4129 3.35048 75.0063 1.52107 74.6107C0.0377657 74.2646 -1.04999 73.2757 -1.49498 71.7924C-2.38497 68.6775 -0.951103 65.2659 0.433315 62.5465C3.94381 55.5749 9.58036 49.9384 15.563 45.0929C22.2873 39.6541 29.605 35.0559 36.2304 29.5182C37.071 28.826 37.8621 28.1338 38.6532 27.3921C39.5926 26.4527 38.1587 25.0188 37.1699 25.9088Z" fill="white"></path><path d="M36.2304 34.8581C27.2317 41.3847 18.1341 47.9607 10.6187 56.2177C9.72867 57.2066 8.83868 58.2449 7.99814 59.2832C7.1576 60.371 6.31706 61.5082 6.16873 62.8926C6.0204 63.9804 6.36651 65.1176 7.10816 65.9087C8.04759 66.8975 9.43201 66.9964 10.6187 66.5514C13.1403 65.612 15.5136 64.0298 17.6891 62.4971C19.9635 60.9149 22.139 59.1843 24.2156 57.3549C29.16 53.0533 33.8077 48.4057 38.5542 43.8568C39.4937 42.9669 38.0598 41.533 37.1204 42.423C33.1649 46.2301 29.2094 50.0373 25.155 53.7456C21.3973 57.1572 17.4913 60.4204 13.0414 62.9915C12.0031 63.5848 10.8659 64.3265 9.72867 64.6726C8.78924 64.9198 8.19592 64.3759 8.14647 63.387C8.09703 62.2993 8.93757 61.3104 9.58034 60.5193C10.3714 59.5305 11.212 58.5416 12.102 57.6022C15.563 53.795 19.3702 50.2845 23.3751 47.0212C27.8744 43.3624 32.5716 39.9508 37.2687 36.5392C37.7137 36.1931 37.9115 35.6492 37.6148 35.1548C37.3676 34.8087 36.6754 34.5615 36.2304 34.8581Z" fill="white"></path><path d="M68.8631 112.929C75.1919 107.59 81.1746 101.805 86.8111 95.7231C92.4972 89.5921 97.7876 83.1645 102.831 76.539C106.687 71.4958 110.445 66.3537 114.302 61.3599C118.603 55.8222 122.954 50.334 127.404 44.8952C131.459 40.0003 135.562 35.1054 139.963 30.5071C140.408 30.0621 140.853 29.5677 141.298 29.1227C142.237 28.1833 140.803 26.7494 139.864 27.6888C135.562 32.0399 131.558 36.6876 127.652 41.3847C123.103 46.8235 118.702 52.3117 114.401 57.8988C110.593 62.7937 106.885 67.6887 103.177 72.633C98.2326 79.3079 92.9916 85.7355 87.4539 91.8665C81.8668 98.047 75.983 103.931 69.7037 109.419C68.9126 110.111 68.1709 110.754 67.3798 111.397C66.4404 112.336 67.8743 113.77 68.8631 112.929Z" fill="white"></path><path d="M138.974 80.7911C132.794 84.4005 126.514 87.7627 120.087 90.9271C116.824 92.5093 113.56 94.042 110.248 95.4759C107.528 96.6625 104.809 97.7997 102.139 99.0852C99.5678 100.371 97.0462 101.854 94.8212 103.683C92.7446 105.414 90.7174 107.59 89.7285 110.161C88.8385 112.484 89.0857 115.797 92.0029 116.44C93.5851 116.786 95.1673 116.143 96.6012 115.649C98.1339 115.105 99.6667 114.512 101.15 113.869C107.973 110.952 114.351 107.095 120.087 102.349C120.532 102.002 120.433 101.261 120.087 100.915C119.691 100.47 119.049 100.569 118.653 100.915C113.906 104.821 108.616 108.133 103.029 110.803C100.26 112.089 97.3923 113.325 94.4751 114.166C93.4862 114.462 91.904 114.808 91.3602 113.572C90.9646 112.682 91.2613 111.545 91.6074 110.704C92.4974 108.43 94.5245 106.452 96.3539 104.92C98.3811 103.238 100.754 101.953 103.128 100.766C105.649 99.5302 108.22 98.4425 110.742 97.3547C113.808 96.0197 116.873 94.5859 119.889 93.152C126.712 89.8888 133.387 86.2794 139.963 82.4722C141.1 81.8789 140.111 80.1484 138.974 80.7911Z" fill="white"></path><path d="M83.7952 104.87C89.5306 102.645 95.0683 99.9753 100.557 97.157C106.737 94.0421 112.819 90.7293 118.801 87.1694C121.57 85.5378 124.289 83.8072 126.91 82.0273C127.998 81.2856 126.959 79.5056 125.872 80.2473C120.878 83.7083 115.587 86.7739 110.247 89.7405C104.265 93.0532 98.1338 96.2176 91.9039 99.1347C89.0362 100.47 86.1685 101.755 83.2513 102.892C82.7569 103.09 82.3613 103.585 82.5591 104.129C82.658 104.623 83.3008 105.068 83.7952 104.87Z" fill="white"></path><path d="M145.649 39.4564C137.244 45.1919 132.052 54.0917 126.761 62.5465C122.064 70.0619 116.477 77.0829 109.753 82.9173C106.341 85.8839 102.435 88.7022 97.9854 89.8888C96.6998 90.2349 97.2437 92.2126 98.5293 91.8665C102.534 90.8282 106.045 88.5044 109.258 85.9333C112.917 83.0162 116.23 79.654 119.296 76.1435C122.064 72.9297 124.685 69.5181 127.009 65.9087C129.728 61.706 132.25 57.4044 135.117 53.3006C138.331 48.7023 142.04 44.4008 146.687 41.2364C147.726 40.4947 146.737 38.7148 145.649 39.4564Z" fill="white"></path><path d="M108.467 76.3906C112.719 72.8801 116.279 68.5291 119.642 64.2275C123.251 59.6293 126.712 54.8333 130.42 50.2844C132.299 48.01 134.277 45.7357 136.403 43.7085C137.342 42.8185 135.908 41.3846 134.969 42.2746C130.964 46.1312 127.552 50.5811 124.19 54.9816C120.63 59.6293 117.169 64.3264 113.313 68.7269C111.335 70.9518 109.308 73.0779 107.033 74.9568C106.588 75.3029 106.687 76.0445 107.033 76.3906C107.429 76.8356 108.072 76.7862 108.467 76.3906Z" fill="white"></path><path d="M97.9361 7.51577C99.7161 7.12022 101.546 6.72467 103.325 6.32912C104.117 6.18079 104.858 5.98302 105.649 5.98302C105.995 5.98302 106.342 6.03246 106.688 6.13135C106.836 6.18079 106.984 6.27968 107.133 6.32912C107.232 6.47745 107.281 6.47745 107.232 6.32912C107.232 6.18079 107.182 6.18079 107.083 6.32912C106.836 6.42801 106.539 6.97189 106.391 7.12022C106.144 7.36743 105.897 7.61465 105.649 7.86187C105.105 8.3563 104.512 8.8013 103.919 9.19685C102.633 10.0374 101.249 10.6307 99.7656 10.9768C98.48 11.2735 99.0239 13.2512 100.309 12.9546C102.188 12.4601 104.018 11.669 105.55 10.5318C106.342 9.9385 107.083 9.34518 107.775 8.60352C108.418 7.96076 109.308 7.12022 109.259 6.13135C109.16 3.75806 105.798 3.75806 104.166 4.00528C101.892 4.35138 99.6667 4.9447 97.3923 5.43914C96.1562 5.83468 96.7 7.76298 97.9361 7.51577Z" fill="white"></path><path d="M54.0301 23.8322C56.4529 22.1017 58.8262 20.3712 61.2489 18.6406C63.4738 17.0584 65.7977 15.5751 68.3687 14.6357C69.6048 14.1907 69.061 12.213 67.8249 12.658C65.1549 13.5974 62.7322 15.0807 60.4083 16.7123C57.9362 18.4429 55.464 20.2723 52.9918 22.0522C52.5468 22.3983 52.349 22.9422 52.6457 23.4367C52.8929 23.8817 53.5851 24.1289 54.0301 23.8322Z" fill="white"></path><path d="M65.7481 68.0841C71.3847 63.1892 77.1201 58.4426 83.0533 53.8938C83.4983 53.5477 83.3994 52.8061 83.0533 52.46C82.6083 52.015 82.0645 52.1139 81.6195 52.46C75.7357 57.0088 69.9508 61.7554 64.3142 66.6503C63.2759 67.4908 64.7592 68.9247 65.7481 68.0841Z" fill="white"></path><path d="M102.04 35.6987C104.66 34.1659 106.737 31.9904 108.813 29.8149C111.187 27.2933 113.511 24.7717 115.834 22.2995C116.724 21.3601 115.291 19.8767 114.401 20.8656C112.126 23.3378 109.802 25.7605 107.528 28.2327C105.55 30.3588 103.523 32.4848 101.001 33.9681C99.8642 34.6109 100.902 36.3909 102.04 35.6987Z" fill="white"></path><path d="M149.407 30.9027C153.61 30.161 157.268 27.6888 160.68 25.2167C164.339 22.5467 167.849 19.679 171.211 16.564C172.151 15.6741 170.717 14.2402 169.778 15.1302C166.564 18.0968 163.202 20.8656 159.691 23.4367C156.428 25.81 152.967 28.2327 148.912 28.9249C147.577 29.1721 148.121 31.1499 149.407 30.9027Z" fill="white"></path><path d="M99.8643 108.034C105.55 105.117 111.236 102.25 116.873 99.3324C118.06 98.7391 117.021 96.9591 115.835 97.5525C110.149 100.47 104.463 103.337 98.826 106.255C97.6394 106.897 98.6777 108.628 99.8643 108.034Z" fill="white"></path><path d="M127.108 69.963C125.525 72.6824 125.921 76.2424 127.998 78.5662C129.975 80.7912 133.486 81.5328 136.255 80.4451C136.749 80.2473 137.145 79.7528 136.947 79.209C136.799 78.7145 136.205 78.2695 135.711 78.5168C133.634 79.3573 131.162 78.9618 129.58 77.3301C127.998 75.6985 127.75 73.0285 128.888 71.0508C129.53 69.8641 127.8 68.8258 127.108 69.963Z" fill="white"></path><path d="M74.5 119.95C75.4888 119.802 76.3788 120.643 76.7744 121.483C77.3677 122.67 77.3182 124.054 77.3182 125.34C77.3182 126.675 79.3454 126.675 79.3454 125.34C79.3454 123.51 79.296 121.483 78.2082 119.95C77.2194 118.517 75.6866 117.725 73.9561 118.022C72.6705 118.22 73.2144 120.198 74.5 119.95Z" fill="white"></path><path d="M119.444 120.741C124.981 119.753 129.778 115.599 133.239 111.347C133.585 110.902 133.634 110.309 133.239 109.913C132.892 109.567 132.151 109.468 131.805 109.913C128.541 113.918 124.141 117.824 118.9 118.764C117.614 119.011 118.158 120.989 119.444 120.741Z" fill="white"></path><path d="M112.176 114.611C119.939 111.743 125.526 105.463 132.448 101.211C133.585 100.519 132.547 98.7391 131.409 99.4314C124.685 103.585 119.147 109.864 111.632 112.633C110.396 113.127 110.94 115.105 112.176 114.611Z" fill="white"></path><path d="M178.974 59.6788C171.508 66.947 163.547 73.7702 155.241 80.0495C154.796 80.3956 154.598 80.9395 154.895 81.4339C155.142 81.8789 155.834 82.1261 156.279 81.78C164.734 75.4018 172.793 68.4797 180.408 61.1126C181.347 60.2227 179.913 58.7888 178.974 59.6788Z" fill="white"></path><path d="M80.4332 109.963C82.5098 109.864 84.3392 111.051 85.2292 112.88C85.773 114.067 87.553 113.028 87.0091 111.842C85.8225 109.37 83.1525 107.787 80.4332 107.886C79.1476 107.985 79.1476 110.012 80.4332 109.963Z" fill="white"></path><path d="M68.4675 27.7877C75.538 23.3378 83.1523 19.7284 91.1127 17.0585C92.3488 16.663 91.8049 14.6852 90.5688 15.0808C82.4601 17.8002 74.6974 21.459 67.4292 26.0078C66.3415 26.7494 67.3303 28.5294 68.4675 27.7877Z" fill="white"></path><path d="M128.937 124.697C127.404 125.884 125.822 127.07 124.042 127.96C122.213 128.9 120.383 129.147 118.356 128.999C113.807 128.653 109.308 129.196 104.858 129.987C103.572 130.235 104.116 132.163 105.402 131.965C107.676 131.57 109.951 131.224 112.274 131.026C114.598 130.828 116.873 130.976 119.147 131.075C123.35 131.273 126.811 128.85 129.975 126.428C130.42 126.081 130.618 125.538 130.321 125.043C130.074 124.648 129.332 124.351 128.937 124.697Z" fill="white"></path><path d="M55.6617 144.128C60.0621 140.469 64.2154 136.514 68.1214 132.361C69.0114 131.421 67.5775 129.987 66.6876 130.927C62.7321 135.08 58.5788 138.986 54.2278 142.694C53.2389 143.535 54.6728 144.969 55.6617 144.128Z" fill="white"></path><path d="M39.9883 10.8285C42.6088 8.99911 44.5371 6.27972 46.5642 3.85699C48.8386 1.18703 51.0636 -1.43347 53.338 -4.10342C54.1785 -5.09229 52.7447 -6.52616 51.9041 -5.53728C49.7286 -2.96622 47.5037 -0.345716 45.3282 2.22535C44.2898 3.46144 43.2515 4.69752 42.1638 5.93361C41.1749 7.07081 40.186 8.20802 38.9994 9.04856C37.8622 9.79021 38.9005 11.5702 39.9883 10.8285Z" fill="white"></path><path d="M40.7791 39.7036C42.6086 40.5936 44.5369 40.4453 46.5146 40.0992C48.4429 39.7531 50.2723 39.0609 52.0028 38.2698C55.5628 36.5887 58.7271 34.2154 61.7432 31.7432C62.1882 31.3971 62.0893 30.6555 61.7432 30.3093C61.3477 29.8644 60.7049 29.9632 60.3093 30.3093C57.5899 32.5343 54.7717 34.6604 51.6073 36.2426C50.0745 37.0337 48.4429 37.627 46.7618 38.0225C45.1796 38.3686 43.3502 38.7147 41.8175 37.9731C40.6308 37.3798 39.5925 39.1103 40.7791 39.7036Z" fill="white"></path><path d="M42.0648 22.2995C44.8831 19.5801 47.7014 16.8607 50.5196 14.1413C51.4591 13.2513 50.0252 11.768 49.0858 12.7074C46.2675 15.4268 43.4492 18.1462 40.6309 20.8656C39.6915 21.805 41.1254 23.2389 42.0648 22.2995Z" fill="white"></path><path d="M63.3255 92.4598C65.501 90.0865 67.8248 87.911 70.3464 85.8344C70.7914 85.4883 70.6926 84.7466 70.3464 84.4005C69.9509 83.9555 69.3081 84.0544 68.9126 84.4005C66.4404 86.4277 64.1166 88.6527 61.8916 91.026C61.0016 91.9654 62.4355 93.3993 63.3255 92.4598Z" fill="white"></path><path d="M37.0216 91.026C40.5816 89.1965 45.5754 86.7244 49.2836 89.5921C50.8164 90.7787 51.5086 92.7565 51.7063 94.5859C51.9536 96.9592 51.6569 99.3819 51.0636 101.706C50.7669 102.991 52.6952 103.535 53.0413 102.25C53.9807 98.4919 54.4752 93.9431 52.5469 90.3832C50.668 86.8727 46.5642 85.8344 42.856 86.5266C40.4332 86.9716 38.1588 88.1582 35.9833 89.246C34.8461 89.8393 35.8844 91.6193 37.0216 91.026Z" fill="white"></path><path d="M35.4885 5.53812C32.3736 10.1858 28.5665 14.3391 24.2154 17.8496C21.9905 19.6295 19.6666 21.3106 17.145 22.695C14.7717 23.9806 12.1018 24.92 9.38237 24.7222C7.10796 24.5739 4.73468 23.585 3.3997 21.6567C1.9164 19.5306 1.86695 16.7618 2.36138 14.2896C3.25137 9.64193 5.72355 5.34035 9.08571 2.02763C12.8929 -1.73008 17.7878 -4.20225 23.0782 -4.94391C23.6221 -4.99335 23.9188 -5.735 23.7704 -6.18C23.6221 -6.77332 23.0782 -6.97109 22.5343 -6.8722C12.2501 -5.48778 3.20192 2.57151 0.630861 12.6085C-0.0613485 15.3774 -0.308565 18.4923 0.828636 21.2117C1.86695 23.7828 4.04247 25.5133 6.66297 26.3538C12.5962 28.1833 18.4305 24.7716 23.0782 21.36C28.6159 17.3057 33.4119 12.3119 37.2191 6.62588C38.0102 5.43923 36.2302 4.45036 35.4885 5.53812Z" fill="white"></path><path d="M29.9015 -0.0985358C27.9732 3.16474 25.7482 6.23024 23.1772 8.99907C20.705 11.7185 17.9856 14.3884 14.9695 16.465C13.7335 17.355 11.7557 18.4922 10.4207 17.0584C9.2341 15.7728 9.58021 13.8445 10.1241 12.3612C11.2613 9.29573 13.3379 6.5269 15.7112 4.2525C18.3812 1.68143 21.6444 -0.246866 25.2044 -1.38407C26.4404 -1.77961 25.8966 -3.75736 24.6605 -3.36181C17.4912 -1.13685 11.3107 4.25249 8.39356 11.224C7.60247 13.1523 7.20692 15.2784 8.0969 17.2067C8.98688 19.0856 10.9152 19.9755 12.8929 19.6294C14.9695 19.2339 16.7001 17.7011 18.2823 16.3662C19.9139 15.0312 21.4961 13.5973 22.9794 12.0646C26.2921 8.70241 29.1598 4.89526 31.5826 0.840892C32.3242 -0.197422 30.5443 -1.18629 29.9015 -0.0985358Z" fill="white"></path><path d="M30.1485 92.4103C19.3204 99.9257 9.18445 108.727 1.71848 119.654C-6.19249 131.273 -9.65353 145.117 -16.8228 157.082C-20.4322 163.115 -25.0305 168.652 -31.112 172.311C-32.2492 173.003 -31.2109 174.734 -30.0737 174.091C-18.6523 167.218 -12.719 154.808 -7.67579 143.04C-4.85751 136.415 -2.13812 129.74 1.66903 123.56C5.08064 117.973 9.28333 112.88 13.9805 108.282C19.2709 103.041 25.1053 98.4424 31.1868 94.1903C32.2251 93.4486 31.2363 91.6687 30.1485 92.4103Z" fill="white"></path><path d="M-48.3675 133.3C-41.5442 130.136 -34.3255 127.911 -26.9584 126.625C-23.2501 125.983 -19.443 125.785 -15.7347 125.142C-12.4715 124.598 -9.35651 123.412 -6.58768 121.582C-1.24778 118.072 2.65826 112.929 6.71263 108.133C11.1131 102.942 16.008 98.1953 21.3479 93.9432C27.4295 89.1472 34.0549 85.0433 41.0264 81.6812C42.2131 81.1373 41.1748 79.3573 39.9881 79.9012C27.5778 85.8344 16.3047 94.2398 7.15762 104.475C2.90548 109.221 -0.802784 114.561 -5.84602 118.517C-8.36765 120.494 -11.2354 121.978 -14.3503 122.719C-17.9597 123.609 -21.668 123.708 -25.3268 124.252C-33.6827 125.488 -41.7915 127.96 -49.4552 131.471C-50.543 132.114 -49.5047 133.844 -48.3675 133.3Z" fill="white"></path><path d="M2.55911 105.266C6.56404 96.9591 14.2278 91.4214 21.7926 86.6254C29.5058 81.7799 37.664 77.2806 43.8939 70.4079C46.91 67.0952 49.3327 63.288 50.7171 59.0359C51.3599 57.0087 52.1015 54.1904 49.8766 52.9049C47.9977 51.7677 45.575 52.7566 43.8445 53.696C39.3945 56.0198 35.6368 59.4809 32.1263 62.9914C28.4181 66.6996 24.7593 70.4573 20.9027 74.0173C12.9917 81.2855 4.53685 88.0098 -4.36298 94.0419C-5.45074 94.7836 -6.5385 95.5252 -7.62625 96.2174C-8.71401 96.9096 -7.6757 98.6896 -6.58794 97.9974C2.16356 92.3114 10.4701 85.9826 18.3316 79.11C22.2376 75.6984 26.0448 72.089 29.7036 68.3807C33.1152 64.9197 36.4279 61.3597 40.2845 58.3931C42.0645 57.0087 44.1411 55.5254 46.2672 54.7837C47.0088 54.5365 47.9483 54.2399 48.7394 54.586C49.6788 54.9815 49.4316 56.2671 49.2338 57.0087C48.2449 61.1125 46.0694 64.8702 43.35 68.0346C37.5651 74.8084 29.7531 79.3077 22.2871 83.9554C14.8211 88.6031 7.15736 93.7452 2.46023 101.31C1.86691 102.25 1.37247 103.238 0.878032 104.227C0.235267 105.414 2.01523 106.452 2.55911 105.266Z" fill="white"></path><path d="M13.5852 30.9026C17.7879 30.161 21.4468 27.6888 24.8584 25.2166C28.5172 22.5467 32.0277 19.6789 35.3898 16.564C36.3293 15.674 34.8954 14.2401 33.956 15.1301C30.7422 18.0967 27.38 20.8656 23.8695 23.4366C20.6062 25.8099 17.1452 28.2327 13.0908 28.9249C11.7064 29.1721 12.2997 31.1498 13.5852 30.9026Z" fill="white"></path><path d="M43.1523 59.6787C35.6863 66.9469 27.7259 73.7701 19.4194 80.0494C18.9744 80.3956 18.7767 80.9394 19.0733 81.4339C19.3205 81.8789 20.0128 82.1261 20.4577 81.78C28.9126 75.4018 36.9719 68.4797 44.5862 61.1126C45.5256 60.2226 44.0917 58.7887 43.1523 59.6787Z" fill="white"></path><path d="M165.97 -43.4111C155.142 -35.8957 145.006 -27.0947 137.54 -16.1677C129.629 -4.54846 126.168 9.29572 118.999 21.2611C115.389 27.2932 110.791 32.8308 104.709 36.4897C103.572 37.1819 104.61 38.9124 105.748 38.2696C117.169 31.397 123.102 18.9867 128.146 7.2191C130.964 0.59367 133.683 -6.08121 137.49 -12.2616C140.902 -17.8488 145.105 -22.9415 149.802 -27.5397C155.092 -32.7807 160.927 -37.379 167.008 -41.6311C168.047 -42.4222 167.058 -44.1527 165.97 -43.4111Z" fill="white"></path><path d="M55.6617 8.30689C60.0621 4.64807 64.2154 0.692582 68.1214 -3.46067C69.0114 -4.4001 67.5775 -5.83396 66.6876 -4.89453C62.7321 -0.741277 58.5788 3.16476 54.2278 6.87302C53.2389 7.71356 54.6728 9.14743 55.6617 8.30689Z" fill="white"></path><path d="M30.1486 -43.4111C19.3205 -35.8957 9.18456 -27.0947 1.71859 -16.1677C-6.19237 -4.54846 -9.65342 9.29572 -16.8227 21.2611C-20.4321 27.2932 -25.0304 32.8308 -31.1119 36.4897C-32.2491 37.1819 -31.2108 38.9124 -30.0736 38.2696C-18.6521 31.397 -12.7189 18.9867 -7.67568 7.2191C-4.8574 0.59367 -2.138 -6.08121 1.66915 -12.2616C5.08075 -17.8488 9.28345 -22.9415 13.9806 -27.5397C19.271 -32.7807 25.1054 -37.379 31.1869 -41.6311C32.2252 -42.4222 31.2364 -44.1527 30.1486 -43.4111Z" fill="white"></path></svg>