<svg xmlns="http://www.w3.org/2000/svg" width="100" height="76" viewBox="0 0 100 76" fill="none"><circle cx="1.21927" cy="1.21961" r="1.21951" fill="#B7CEDF"></circle><circle cx="13.4144" cy="1.21961" r="1.21951" fill="#B7CEDF"></circle><circle cx="25.6095" cy="1.21961" r="1.21951" fill="#B7CEDF"></circle><circle cx="37.8046" cy="1.21961" r="1.21951" fill="#B7CEDF"></circle><circle cx="49.9998" cy="1.21961" r="1.21951" fill="#B7CEDF"></circle><circle cx="62.1949" cy="1.21961" r="1.21951" fill="#B7CEDF"></circle><circle cx="74.39" cy="1.21961" r="1.21951" fill="#B7CEDF"></circle><circle cx="86.5851" cy="1.21961" r="1.21951" fill="#B7CEDF"></circle><circle cx="98.7802" cy="1.21961" r="1.21951" fill="#B7CEDF"></circle><circle cx="1.21927" cy="13.4147" r="1.21951" fill="#B7CEDF"></circle><circle cx="13.4144" cy="13.4148" r="1.21951" fill="#B7CEDF"></circle><circle cx="25.6095" cy="13.4148" r="1.21951" fill="#B7CEDF"></circle><circle cx="37.8046" cy="13.4148" r="1.21951" fill="#B7CEDF"></circle><circle cx="49.9998" cy="13.4148" r="1.21951" fill="#B7CEDF"></circle><circle cx="62.1949" cy="13.4148" r="1.21951" fill="#B7CEDF"></circle><circle cx="74.39" cy="13.4148" r="1.21951" fill="#B7CEDF"></circle><circle cx="86.5851" cy="13.4148" r="1.21951" fill="#B7CEDF"></circle><circle cx="98.7802" cy="13.4148" r="1.21951" fill="#B7CEDF"></circle><circle cx="1.21927" cy="25.6099" r="1.21951" fill="#B7CEDF"></circle><circle cx="13.4144" cy="25.6098" r="1.21951" fill="#B7CEDF"></circle><circle cx="25.6095" cy="25.6098" r="1.21951" fill="#B7CEDF"></circle><circle cx="37.8046" cy="25.6098" r="1.21951" fill="#B7CEDF"></circle><circle cx="49.9998" cy="25.6098" r="1.21951" fill="#B7CEDF"></circle><circle cx="62.1949" cy="25.6098" r="1.21951" fill="#B7CEDF"></circle><circle cx="74.39" cy="25.6098" r="1.21951" fill="#B7CEDF"></circle><circle cx="86.5851" cy="25.6098" r="1.21951" fill="#B7CEDF"></circle><circle cx="98.7802" cy="25.6098" r="1.21951" fill="#B7CEDF"></circle><circle cx="1.21927" cy="37.805" r="1.21951" fill="#B7CEDF"></circle><circle cx="13.4144" cy="37.805" r="1.21951" fill="#B7CEDF"></circle><circle cx="25.6095" cy="37.805" r="1.21951" fill="#B7CEDF"></circle><circle cx="37.8046" cy="37.805" r="1.21951" fill="#B7CEDF"></circle><circle cx="49.9998" cy="37.805" r="1.21951" fill="#B7CEDF"></circle><circle cx="62.1949" cy="37.805" r="1.21951" fill="#B7CEDF"></circle><circle cx="74.39" cy="37.805" r="1.21951" fill="#B7CEDF"></circle><circle cx="86.5851" cy="37.805" r="1.21951" fill="#B7CEDF"></circle><circle cx="98.7802" cy="37.805" r="1.21951" fill="#B7CEDF"></circle><circle cx="1.21927" cy="50.0001" r="1.21951" fill="#B7CEDF"></circle><circle cx="13.4144" cy="50.0001" r="1.21951" fill="#B7CEDF"></circle><circle cx="25.6095" cy="50.0001" r="1.21951" fill="#B7CEDF"></circle><circle cx="37.8046" cy="50.0001" r="1.21951" fill="#B7CEDF"></circle><circle cx="49.9998" cy="50.0001" r="1.21951" fill="#B7CEDF"></circle><circle cx="62.1949" cy="50.0001" r="1.21951" fill="#B7CEDF"></circle><circle cx="74.39" cy="50.0001" r="1.21951" fill="#B7CEDF"></circle><circle cx="86.5851" cy="50.0001" r="1.21951" fill="#B7CEDF"></circle><circle cx="98.7802" cy="50.0001" r="1.21951" fill="#B7CEDF"></circle><circle cx="1.21927" cy="62.1952" r="1.21951" fill="#B7CEDF"></circle><circle cx="13.4144" cy="62.1953" r="1.21951" fill="#B7CEDF"></circle><circle cx="25.6095" cy="62.1953" r="1.21951" fill="#B7CEDF"></circle><circle cx="37.8046" cy="62.1953" r="1.21951" fill="#B7CEDF"></circle><circle cx="49.9998" cy="62.1953" r="1.21951" fill="#B7CEDF"></circle><circle cx="62.1949" cy="62.1953" r="1.21951" fill="#B7CEDF"></circle><circle cx="74.39" cy="62.1953" r="1.21951" fill="#B7CEDF"></circle><circle cx="86.5851" cy="62.1953" r="1.21951" fill="#B7CEDF"></circle><circle cx="98.7802" cy="62.1953" r="1.21951" fill="#B7CEDF"></circle><circle cx="1.21927" cy="74.3904" r="1.21951" fill="#B7CEDF"></circle><circle cx="13.4144" cy="74.3903" r="1.21951" fill="#B7CEDF"></circle><circle cx="25.6095" cy="74.3903" r="1.21951" fill="#B7CEDF"></circle><circle cx="37.8046" cy="74.3903" r="1.21951" fill="#B7CEDF"></circle><circle cx="49.9998" cy="74.3903" r="1.21951" fill="#B7CEDF"></circle><circle cx="62.1949" cy="74.3903" r="1.21951" fill="#B7CEDF"></circle><circle cx="74.39" cy="74.3903" r="1.21951" fill="#B7CEDF"></circle><circle cx="86.5851" cy="74.3903" r="1.21951" fill="#B7CEDF"></circle><circle cx="98.7802" cy="74.3903" r="1.21951" fill="#B7CEDF"></circle></svg>