<svg xmlns="http://www.w3.org/2000/svg" width="32" height="40" viewBox="0 0 32 40" fill="none"><g clip-path="url(#clip0_2_1291)"><path d="M15.8816 34.8478C14.695 33.3022 13.5552 31.8814 12.478 30.4294C9.49592 26.4169 6.73245 22.2951 4.49982 17.7987C0.518555 9.74245 6.32652 1.59256 13.4928 0.218638C21.5646 -1.32703 29.3866 5.51138 28.4811 13.5832C28.3093 15.1757 27.6692 16.7526 27.0135 18.2358C25.0463 22.5918 22.2516 26.4481 19.41 30.2733C18.2859 31.7721 17.1306 33.2397 15.8816 34.8478ZM15.8191 20.6402C20.1751 20.6714 23.7348 17.1741 23.7972 12.8182C23.8441 8.47781 20.3156 4.87125 15.9908 4.84003C11.5724 4.8088 8.0127 8.30607 7.98147 12.6933C7.93464 17.0336 11.4631 20.609 15.8191 20.6402Z" fill="white"></path><path d="M9.85503 31.1944C8.18446 31.6628 6.59196 32.0687 5.04629 32.5683C4.39055 32.7869 3.78165 33.1616 3.20398 33.5675C2.57947 34.0047 2.57947 34.3482 3.20398 34.7853C3.89094 35.2381 4.62474 35.6596 5.40538 35.9407C9.3242 37.3146 13.3835 37.5488 17.4897 37.4239C20.3624 37.3302 23.204 37.018 25.9362 36.0968C26.7012 35.847 27.435 35.5191 28.122 35.1132C29.2617 34.4418 29.3086 33.8642 28.122 33.3177C26.5451 32.6152 24.8745 32.1312 23.2352 31.5847C22.8449 31.4598 22.4233 31.4286 21.83 31.3193C22.3921 30.5543 22.8761 29.8517 23.4226 29.1647C23.5006 29.071 23.7817 29.0554 23.9222 29.1179C25.6396 29.6799 27.4038 30.1639 29.0588 30.8977C30.4171 31.5066 31.5412 32.5059 31.5256 34.2077C31.5256 35.8626 30.3859 36.7525 29.1056 37.4863C27.1384 38.6105 24.9526 39.1413 22.7512 39.4692C17.2555 40.3123 11.7598 40.2654 6.34215 38.8915C5.12435 38.5792 3.93778 38.064 2.78243 37.5332C2.15792 37.2522 1.59586 36.7838 1.11186 36.2842C-0.105936 35.0195 -0.168388 33.3021 1.12747 32.1155C2.00179 31.3193 3.1103 30.6792 4.2032 30.1952C5.32732 29.6956 6.57634 29.4614 7.77853 29.1491C7.9815 29.1023 8.34059 29.1491 8.44988 29.2896C8.9651 29.8829 9.40226 30.5543 9.85503 31.1944Z" fill="white"></path></g><defs><clipPath id="clip0_2_1291"><rect width="31.3505" height="40" fill="white" transform="translate(0.175316)"></rect></clipPath></defs></svg>