<svg width="22" height="22" viewBox="0 0 22 22" fill="none" xmlns="http://www.w3.org/2000/svg">
<path d="M14.688 6.56379C14.5911 6.56379 14.5062 6.52742 14.4456 6.46681C14.385 6.4062 14.3486 6.30923 14.3486 6.22438C14.3486 6.13953 14.385 6.04256 14.4456 5.98195L18.0578 2.36972C18.1184 2.30911 18.2154 2.27275 18.3003 2.27275C18.3851 2.27275 18.4821 2.30911 18.5427 2.36972C18.6033 2.43033 18.6397 2.5273 18.6397 2.61215C18.6397 2.697 18.6033 2.79397 18.5427 2.85458L14.9305 6.46681C14.8577 6.52742 14.7729 6.56379 14.688 6.56379Z" fill="#FF3C48"/>
<path d="M15.6695 7.53354C15.5725 7.53354 15.4877 7.49717 15.4271 7.43656C15.3664 7.37596 15.3301 7.27898 15.3301 7.19413C15.3301 7.10928 15.3664 7.01231 15.4271 6.9517L19.0393 3.33947C19.0999 3.27886 19.1969 3.2425 19.2817 3.2425C19.3666 3.2425 19.4635 3.27886 19.5241 3.33947C19.5848 3.40008 19.6211 3.49705 19.6211 3.5819C19.6211 3.67887 19.5848 3.76372 19.5241 3.83645L15.9119 7.42444C15.8513 7.49717 15.7543 7.53354 15.6695 7.53354Z" fill="#FF3C48"/>
<path d="M16.9421 19.8491C16.3966 19.8491 15.8754 19.6309 15.4875 19.243C15.4512 19.2066 10.5419 13.6792 10.5419 13.6792C10.5419 13.6792 5.63268 19.2066 5.59631 19.243C5.20842 19.6309 4.69932 19.8491 4.14172 19.8491C3.59625 19.8491 3.07502 19.6309 2.68713 19.243C2.29924 18.8551 2.08105 18.3339 2.08105 17.7884C2.08105 17.2429 2.29924 16.7217 2.68713 16.3338C2.7235 16.2974 6.91757 12.5761 6.91757 12.5761C7.02666 12.4791 7.16 12.4307 7.30546 12.4307C7.47516 12.4307 7.63274 12.5034 7.75396 12.6246C7.97214 12.867 7.9479 13.2428 7.70547 13.461L3.58413 17.1096C3.35382 17.3278 3.26897 17.546 3.26897 17.7884C3.26897 18.0308 3.35382 18.2369 3.52352 18.4066C3.69323 18.5763 3.91141 18.6612 4.14172 18.6612C4.37203 18.6612 4.59022 18.5763 4.75992 18.4066L12.9299 9.20631C13.039 9.0851 13.2087 9.01237 13.3784 9.01237C13.4632 9.01237 13.5481 9.03661 13.6329 9.07298C13.8511 9.18207 14.0814 9.23056 14.3239 9.23056C14.7481 9.23056 15.1602 9.06086 15.4633 8.75782L19.9483 4.27283C20.0574 4.16374 20.2028 4.10313 20.3604 4.10313C20.518 4.10313 20.6634 4.16374 20.7725 4.27283C21.0028 4.50314 21.0028 4.87891 20.7725 5.10922L16.2876 9.59421C15.7663 10.1154 15.0633 10.4064 14.3117 10.4064C14.0451 10.4064 13.7905 10.37 13.536 10.2973L12.6753 11.267C12.6753 11.267 18.3482 16.2974 18.3846 16.3338C19.1846 17.1338 19.1846 18.443 18.3846 19.243C17.9967 19.643 17.4876 19.8491 16.9421 19.8491ZM16.2633 18.346C16.4815 18.5763 16.6997 18.6612 16.9421 18.6612C17.1724 18.6612 17.3906 18.5763 17.5603 18.4066C17.73 18.2369 17.8149 18.0187 17.8149 17.7884C17.8149 17.5581 17.73 17.3399 17.5603 17.1702L11.8995 12.164L11.3298 12.7943L16.2633 18.346Z" fill="#FF3C48"/>
<path d="M9.23278 11.9094C9.06307 11.9094 8.90549 11.8367 8.7964 11.7155C8.78428 11.7034 7.92364 10.7336 7.59636 10.37C7.12362 10.5882 6.60239 10.6973 6.06904 10.6973C5.06295 10.6973 4.12959 10.3094 3.41442 9.5942C2.29923 8.47902 1.52345 7.19413 1.20829 5.95773C0.868884 4.62435 1.09919 3.48492 1.86285 2.72126C2.38408 2.20004 3.11138 1.92124 3.95989 1.92124C4.32354 1.92124 4.6993 1.96973 5.09932 2.0667C6.33572 2.38186 7.62061 3.15764 8.73579 4.27283C9.85098 5.38801 10.1419 7.04867 9.51157 8.45477L10.5419 9.36389L11.645 8.39417C11.3662 7.43656 11.6329 6.36986 12.348 5.65469L16.833 1.1697C16.9421 1.06061 17.0876 1 17.2451 1C17.4027 1 17.5482 1.06061 17.6573 1.1697C17.7664 1.2788 17.827 1.42426 17.827 1.58184C17.827 1.73942 17.7664 1.88488 17.6573 1.99397L13.1844 6.49108C12.6995 6.97594 12.5783 7.70324 12.8693 8.32144C12.9783 8.55175 12.9299 8.84266 12.7238 9.01237L9.63279 11.764C9.52369 11.8609 9.37823 11.9094 9.23278 11.9094ZM7.74182 9.04873C7.91152 9.04873 8.0691 9.12146 8.1782 9.24268L9.28126 10.4912L9.64491 10.1639L8.38427 9.03661C8.16608 8.84266 8.11759 8.5275 8.27517 8.28507C8.90549 7.26686 8.74791 5.95773 7.8994 5.10922C6.9418 4.15161 5.83873 3.4728 4.8084 3.21825C4.51748 3.14552 4.22656 3.10916 3.97201 3.10916C3.43866 3.10916 3.00228 3.26674 2.71136 3.56978C2.25074 4.00615 2.12953 4.75769 2.35984 5.66681C2.61439 6.69714 3.2932 7.80021 4.25081 8.75781C4.73567 9.24268 5.39023 9.52147 6.06904 9.52147C6.54178 9.52147 7.01453 9.38814 7.42666 9.13358C7.52363 9.07297 7.63273 9.04873 7.74182 9.04873Z" fill="#FF3C48"/>
</svg>
