<svg width="22" height="22" viewBox="0 0 22 22" fill="none" xmlns="http://www.w3.org/2000/svg">
<path d="M8.07615 1.83333L4.75781 5.16083" stroke="#FF3C48" stroke-width="1.5" stroke-miterlimit="10" stroke-linecap="round" stroke-linejoin="round"/>
<path d="M13.9238 1.83333L17.2422 5.16083" stroke="#FF3C48" stroke-width="1.5" stroke-miterlimit="10" stroke-linecap="round" stroke-linejoin="round"/>
<path d="M1.83301 7.19583C1.83301 5.5 2.74051 5.3625 3.86801 5.3625H18.1313C19.2588 5.3625 20.1663 5.5 20.1663 7.19583C20.1663 9.16667 19.2588 9.02917 18.1313 9.02917H3.86801C2.74051 9.02917 1.83301 9.16667 1.83301 7.19583Z" stroke="#FF3C48" stroke-width="1.5"/>
<path d="M8.94629 12.8333V16.0875" stroke="#FF3C48" stroke-width="1.5" stroke-linecap="round"/>
<path d="M13.1631 12.8333V16.0875" stroke="#FF3C48" stroke-width="1.5" stroke-linecap="round"/>
<path d="M3.20801 9.16666L4.50051 17.0867C4.79384 18.865 5.49967 20.1667 8.12134 20.1667H13.6488C16.4997 20.1667 16.9213 18.92 17.2513 17.1967L18.7913 9.16666" stroke="#FF3C48" stroke-width="1.5" stroke-linecap="round"/>
</svg>
